<?xml version="1.0" encoding="UTF-8" standalone="no"?>
<!-- Created with Inkscape (http://www.inkscape.org/) -->

<svg
   version="1.1"
   id="svg1"
   width="761.27997"
   height="352"
   viewBox="0 0 761.27997 352"
   xmlns="http://www.w3.org/2000/svg"
   xmlns:svg="http://www.w3.org/2000/svg">
  <defs
     id="defs1">
    <clipPath
       clipPathUnits="userSpaceOnUse"
       id="clipPath2">
      <path
         d="M 0,0 H 2380 V 1100 H 0 Z"
         transform="matrix(0.31990034,0,0,0.31990034,32.414511,169.00001)"
         clip-rule="evenodd"
         id="path2" />
    </clipPath>
    <clipPath
       clipPathUnits="userSpaceOnUse"
       id="clipPath4">
      <path
         d="M 0,0 H 2380 V 1100 H 0 Z"
         transform="matrix(0.31990034,0,0,0.31990034,-150.58549,-41.500003)"
         clip-rule="evenodd"
         id="path4" />
    </clipPath>
    <clipPath
       clipPathUnits="userSpaceOnUse"
       id="clipPath6">
      <path
         d="M 0,0 H 2380 V 1100 H 0 Z"
         transform="matrix(0.31990034,0,0,0.31990034,32.414511,169.00001)"
         clip-rule="evenodd"
         id="path6" />
    </clipPath>
    <clipPath
       clipPathUnits="userSpaceOnUse"
       id="clipPath8">
      <path
         d="M 0,0 H 2380 V 1100 H 0 Z"
         transform="matrix(0.31990034,0,0,0.31990034,-90.585494,-181.50001)"
         clip-rule="evenodd"
         id="path8" />
    </clipPath>
    <clipPath
       clipPathUnits="userSpaceOnUse"
       id="clipPath10">
      <path
         d="M 0,0 H 2380 V 1100 H 0 Z"
         transform="matrix(0.31990034,0,0,0.31990034,32.414511,169.00001)"
         clip-rule="evenodd"
         id="path10" />
    </clipPath>
    <clipPath
       clipPathUnits="userSpaceOnUse"
       id="clipPath12">
      <path
         d="M 0,0 H 2380 V 1100 H 0 Z"
         transform="matrix(0.31990034,0,0,0.31990034,-31.585491,-321.50001)"
         clip-rule="evenodd"
         id="path12" />
    </clipPath>
    <clipPath
       clipPathUnits="userSpaceOnUse"
       id="clipPath14">
      <path
         d="M 0,0 H 2380 V 1100 H 0 Z"
         transform="matrix(0.31990034,0,0,0.31990034,32.414511,169.00001)"
         clip-rule="evenodd"
         id="path14" />
    </clipPath>
    <clipPath
       clipPathUnits="userSpaceOnUse"
       id="clipPath16">
      <path
         d="M 0,0 H 2380 V 1100 H 0 Z"
         transform="matrix(0.31990034,0,0,0.31990034,-261.5855,-321.50001)"
         clip-rule="evenodd"
         id="path16" />
    </clipPath>
    <clipPath
       clipPathUnits="userSpaceOnUse"
       id="clipPath18">
      <path
         d="M 0,0 H 2380 V 1100 H 0 Z"
         transform="matrix(0.31990034,0,0,0.31990034,32.414511,169.00001)"
         clip-rule="evenodd"
         id="path18" />
    </clipPath>
    <clipPath
       clipPathUnits="userSpaceOnUse"
       id="clipPath20">
      <path
         d="M 0,0 H 2380 V 1100 H 0 Z"
         transform="matrix(0.31990034,0,0,0.31990034,32.414511,169.00001)"
         clip-rule="evenodd"
         id="path20" />
    </clipPath>
    <clipPath
       clipPathUnits="userSpaceOnUse"
       id="clipPath22">
      <path
         d="M 0,0 H 2380 V 1100 H 0 Z"
         transform="matrix(0.31990034,0,0,0.31990034,32.414511,169.00001)"
         clip-rule="evenodd"
         id="path22" />
    </clipPath>
    <clipPath
       clipPathUnits="userSpaceOnUse"
       id="clipPath24">
      <path
         d="M 0,0 H 2380 V 1100 H 0 Z"
         transform="matrix(0.31990034,0,0,0.31990034,32.414511,169.00001)"
         clip-rule="evenodd"
         id="path24" />
    </clipPath>
    <clipPath
       clipPathUnits="userSpaceOnUse"
       id="clipPath26">
      <path
         d="M 0,0 H 2380 V 1100 H 0 Z"
         transform="matrix(0.31990034,0,0,0.31990034,32.414511,169.00001)"
         clip-rule="evenodd"
         id="path26" />
    </clipPath>
    <clipPath
       clipPathUnits="userSpaceOnUse"
       id="clipPath28">
      <path
         d="M 0,0 H 2380 V 1100 H 0 Z"
         transform="matrix(0.31990034,0,0,0.31990034,32.414511,169.00001)"
         clip-rule="evenodd"
         id="path28" />
    </clipPath>
    <clipPath
       clipPathUnits="userSpaceOnUse"
       id="clipPath30">
      <path
         d="M 0,0 H 2380 V 1100 H 0 Z"
         transform="matrix(0.31990034,0,0,0.31990034,32.414511,169.00001)"
         clip-rule="evenodd"
         id="path30" />
    </clipPath>
    <clipPath
       clipPathUnits="userSpaceOnUse"
       id="clipPath32">
      <path
         d="M 0,0 H 2380 V 1100 H 0 Z"
         transform="matrix(0.31990034,0,0,0.31990034,32.414511,169.00001)"
         clip-rule="evenodd"
         id="path32" />
    </clipPath>
    <clipPath
       clipPathUnits="userSpaceOnUse"
       id="clipPath34">
      <path
         d="M 0,0 H 2380 V 1100 H 0 Z"
         transform="matrix(0.31990034,0,0,0.31990034,32.414511,169.00001)"
         clip-rule="evenodd"
         id="path34" />
    </clipPath>
    <clipPath
       clipPathUnits="userSpaceOnUse"
       id="clipPath36">
      <path
         d="M 0,0 H 2380 V 1100 H 0 Z"
         transform="matrix(0.31990034,0,0,0.31990034,-610.58551,-41.500003)"
         clip-rule="evenodd"
         id="path36" />
    </clipPath>
    <clipPath
       clipPathUnits="userSpaceOnUse"
       id="clipPath38">
      <path
         d="M 0,0 H 2380 V 1100 H 0 Z"
         transform="matrix(0.31990034,0,0,0.31990034,32.414511,169.00001)"
         clip-rule="evenodd"
         id="path38" />
    </clipPath>
    <clipPath
       clipPathUnits="userSpaceOnUse"
       id="clipPath40">
      <path
         d="M 0,0 H 2380 V 1100 H 0 Z"
         transform="matrix(0.31990034,0,0,0.31990034,-550.58551,-181.50001)"
         clip-rule="evenodd"
         id="path40" />
    </clipPath>
    <clipPath
       clipPathUnits="userSpaceOnUse"
       id="clipPath42">
      <path
         d="M 0,0 H 2380 V 1100 H 0 Z"
         transform="matrix(0.31990034,0,0,0.31990034,32.414511,169.00001)"
         clip-rule="evenodd"
         id="path42" />
    </clipPath>
    <clipPath
       clipPathUnits="userSpaceOnUse"
       id="clipPath44">
      <path
         d="M 0,0 H 2380 V 1100 H 0 Z"
         transform="matrix(0.31990034,0,0,0.31990034,-491.58551,-321.50001)"
         clip-rule="evenodd"
         id="path44" />
    </clipPath>
    <clipPath
       clipPathUnits="userSpaceOnUse"
       id="clipPath46">
      <path
         d="M 0,0 H 2380 V 1100 H 0 Z"
         transform="matrix(0.31990034,0,0,0.31990034,32.414511,169.00001)"
         clip-rule="evenodd"
         id="path46" />
    </clipPath>
    <clipPath
       clipPathUnits="userSpaceOnUse"
       id="clipPath48">
      <path
         d="M 0,0 H 2380 V 1100 H 0 Z"
         transform="matrix(0.31990034,0,0,0.31990034,-721.58552,-321.50001)"
         clip-rule="evenodd"
         id="path48" />
    </clipPath>
    <clipPath
       clipPathUnits="userSpaceOnUse"
       id="clipPath50">
      <path
         d="M 0,0 H 2380 V 1100 H 0 Z"
         transform="matrix(0.31990034,0,0,0.31990034,32.414511,169.00001)"
         clip-rule="evenodd"
         id="path50" />
    </clipPath>
    <clipPath
       clipPathUnits="userSpaceOnUse"
       id="clipPath52">
      <path
         d="M 0,0 H 2380 V 1100 H 0 Z"
         transform="matrix(0.31990034,0,0,0.31990034,32.414511,169.00001)"
         clip-rule="evenodd"
         id="path52" />
    </clipPath>
    <clipPath
       clipPathUnits="userSpaceOnUse"
       id="clipPath54">
      <path
         d="M 0,0 H 2380 V 1100 H 0 Z"
         transform="matrix(0.31990034,0,0,0.31990034,32.414511,169.00001)"
         clip-rule="evenodd"
         id="path54" />
    </clipPath>
    <clipPath
       clipPathUnits="userSpaceOnUse"
       id="clipPath56">
      <path
         d="M 0,0 H 2380 V 1100 H 0 Z"
         transform="matrix(0.31990034,0,0,0.31990034,32.414511,169.00001)"
         clip-rule="evenodd"
         id="path56" />
    </clipPath>
    <clipPath
       clipPathUnits="userSpaceOnUse"
       id="clipPath58">
      <path
         d="M 0,0 H 2380 V 1100 H 0 Z"
         transform="matrix(0.31990034,0,0,0.31990034,32.414511,169.00001)"
         clip-rule="evenodd"
         id="path58" />
    </clipPath>
    <clipPath
       clipPathUnits="userSpaceOnUse"
       id="clipPath60">
      <path
         d="M 0,0 H 2380 V 1100 H 0 Z"
         transform="matrix(0.31990034,0,0,0.31990034,32.414511,169.00001)"
         clip-rule="evenodd"
         id="path60" />
    </clipPath>
    <clipPath
       clipPathUnits="userSpaceOnUse"
       id="clipPath62">
      <path
         d="M 0,0 H 2380 V 1100 H 0 Z"
         transform="matrix(0.31990034,0,0,0.31990034,32.414511,169.00001)"
         clip-rule="evenodd"
         id="path62" />
    </clipPath>
    <clipPath
       clipPathUnits="userSpaceOnUse"
       id="clipPath64">
      <path
         d="M 0,0 H 2380 V 1100 H 0 Z"
         transform="matrix(0.31990034,0,0,0.31990034,-666.58552,-181.50001)"
         clip-rule="evenodd"
         id="path64" />
    </clipPath>
    <clipPath
       clipPathUnits="userSpaceOnUse"
       id="clipPath66">
      <path
         d="M 0,0 H 2380 V 1100 H 0 Z"
         transform="matrix(0.31990034,0,0,0.31990034,32.414511,169.00001)"
         clip-rule="evenodd"
         id="path66" />
    </clipPath>
    <clipPath
       clipPathUnits="userSpaceOnUse"
       id="clipPath68">
      <path
         d="M 0,0 H 2380 V 1100 H 0 Z"
         transform="matrix(0.31990034,0,0,0.31990034,32.414511,169.00001)"
         clip-rule="evenodd"
         id="path68" />
    </clipPath>
    <clipPath
       clipPathUnits="userSpaceOnUse"
       id="clipPath70">
      <path
         d="M 0,0 H 2380 V 1100 H 0 Z"
         transform="matrix(0.31990034,0,0,0.31990034,32.414511,169.00001)"
         clip-rule="evenodd"
         id="path70" />
    </clipPath>
    <clipPath
       clipPathUnits="userSpaceOnUse"
       id="clipPath72">
      <path
         d="M 0,0 H 2380 V 1100 H 0 Z"
         transform="matrix(0.31990034,0,0,0.31990034,32.414511,169.00001)"
         clip-rule="evenodd"
         id="path72" />
    </clipPath>
    <clipPath
       clipPathUnits="userSpaceOnUse"
       id="clipPath74">
      <path
         d="M 0,0 H 2380 V 1100 H 0 Z"
         transform="matrix(0.31990034,0,0,0.31990034,32.414511,169.00001)"
         clip-rule="evenodd"
         id="path74" />
    </clipPath>
    <clipPath
       clipPathUnits="userSpaceOnUse"
       id="clipPath76">
      <path
         d="M 0,0 H 2380 V 1100 H 0 Z"
         transform="matrix(0.31990034,0,0,0.31990034,32.414511,169.00001)"
         clip-rule="evenodd"
         id="path76" />
    </clipPath>
    <clipPath
       clipPathUnits="userSpaceOnUse"
       id="clipPath78">
      <path
         d="M 0,0 H 2380 V 1100 H 0 Z"
         transform="matrix(0.31990034,0,0,0.31990034,-348.47613,-161.5)"
         clip-rule="evenodd"
         id="path78" />
    </clipPath>
  </defs>
  <g
     id="g1">
    <path
       id="path1"
       d="m 221.86,205 c 2e-5,1.1463 -0.0562,2.28984 -0.16852,3.43062 -0.11236,1.14076 -0.28036,2.27328 -0.50401,3.39755 -0.22363,1.12427 -0.50182,2.23486 -0.83456,3.3318 -0.33275,1.09693 -0.71848,2.1749 -1.15715,3.23394 -0.43866,1.05903 -0.92817,2.09404 -1.46853,3.10498 -0.54036,1.01094 -1.12896,1.99295 -1.76582,2.94606 -0.63683,0.95311 -1.31885,1.87272 -2.04605,2.75882 -0.7272,0.88609 -1.49608,1.7344 -2.30664,2.54495 -0.81055,0.81056 -1.65888,1.57944 -2.54497,2.30662 -0.88609,0.72721 -1.80571,1.40923 -2.75882,2.04605 -0.95311,0.63686 -1.93512,1.22548 -2.94606,1.76584 -1.01094,0.54036 -2.04594,1.02986 -3.10498,1.46852 -1.05904,0.43868 -2.13701,0.82439 -3.23393,1.15715 -1.09694,0.33275 -2.20755,0.61095 -3.33182,0.83457 -1.12425,0.22363 -2.25677,0.39163 -3.39755,0.50398 C 189.14983,239.94382 188.00629,240 186.86,240 c -1.14627,0 -2.28979,-0.0562 -3.43059,-0.16855 -1.14076,-0.11235 -2.2733,-0.28035 -3.39758,-0.504 -1.12425,-0.22361 -2.23485,-0.5018 -3.33179,-0.83455 -1.09694,-0.33276 -2.17494,-0.71847 -3.23398,-1.15715 -1.05902,-0.43866 -2.094,-0.92816 -3.10495,-1.46852 -1.01094,-0.54036 -1.99298,-1.12898 -2.94609,-1.76584 -0.95311,-0.63682 -1.87269,-1.31884 -2.75879,-2.04603 -0.88609,-0.72719 -1.73442,-1.49608 -2.54498,-2.30664 -0.81053,-0.81055 -1.57941,-1.65888 -2.30661,-2.54497 -0.7272,-0.88609 -1.40922,-1.80571 -2.04608,-2.75882 -0.63684,-0.95309 -1.22543,-1.9351 -1.76579,-2.94604 -0.54036,-1.01096 -1.0299,-2.04596 -1.46857,-3.105 -0.43866,-1.05902 -0.82437,-2.13701 -1.15712,-3.23395 -0.33275,-1.09691 -0.61093,-2.2075 -0.83456,-3.33178 -0.22364,-1.12427 -0.39162,-2.25679 -0.50397,-3.39756 -0.11235,-1.14076 -0.16853,-2.2843 -0.16855,-3.4306 2e-5,-1.14629 0.0562,-2.28981 0.16855,-3.43059 0.11235,-1.14078 0.28033,-2.2733 0.50397,-3.39758 0.22363,-1.12425 0.50183,-2.23485 0.83458,-3.33179 0.33274,-1.09694 0.71844,-2.17494 1.1571,-3.23398 0.43867,-1.05903 0.92819,-2.09402 1.46855,-3.10496 0.54036,-1.01094 1.12897,-1.99297 1.76581,-2.94608 0.63686,-0.95311 1.31888,-1.87269 2.04608,-2.75879 0.7272,-0.88609 1.49608,-1.73442 2.30661,-2.54498 0.81056,-0.81055 1.65889,-1.57942 2.54498,-2.30661 0.8861,-0.72722 1.80568,-1.40925 2.75879,-2.04611 0.95311,-0.63684 1.93514,-1.22543 2.94608,-1.76579 1.01094,-0.54035 2.04593,-1.02987 3.10495,-1.46854 1.05905,-0.43866 2.13705,-0.82437 3.23399,-1.15712 1.09693,-0.33275 2.20752,-0.61093 3.33179,-0.83456 1.12428,-0.22362 2.25682,-0.39161 3.39758,-0.50397 C 184.57021,170.05618 185.71373,170 186.86,170 c 1.14629,0 2.28983,0.0562 3.43059,0.16855 1.14078,0.11236 2.2733,0.28035 3.39755,0.50397 1.12427,0.22363 2.23488,0.50181 3.33182,0.83456 1.09692,0.33275 2.17489,0.71846 3.23393,1.15712 1.05904,0.43867 2.09404,0.92819 3.10498,1.46854 1.01094,0.54036 1.99295,1.12895 2.94606,1.76579 0.95311,0.63686 1.87271,1.31889 2.75881,2.04608 0.8861,0.72722 1.73443,1.49609 2.54498,2.30664 0.81056,0.81056 1.57944,1.65889 2.30664,2.54498 0.7272,0.8861 1.40922,1.80568 2.04605,2.75879 0.63686,0.95311 1.22546,1.93515 1.76581,2.94609 0.54036,1.01094 1.02988,2.04592 1.46854,3.10495 0.43867,1.05904 0.8244,2.13703 1.15715,3.23397 0.33274,1.09694 0.61093,2.20755 0.83456,3.3318 0.22365,1.12428 0.39165,2.2568 0.50401,3.39758 0.11235,1.14078 0.16854,2.2843 0.16852,3.43059 z"
       style="fill:#ffffff;fill-opacity:1;fill-rule:nonzero;stroke:#000000;stroke-width:1;stroke-linecap:butt;stroke-linejoin:miter;stroke-miterlimit:10;stroke-dasharray:none;stroke-opacity:1"
       transform="matrix(1.0003115,0,0,1.0003115,-32.424608,-169.05265)"
       clip-path="url(#clipPath2)" />
    <path
       id="path3"
       d="M 0.40653222,-3.9999648 5.4362153,-10.810343 h 0.9528281 v 6.8103782 h 0.9684483 v 1.6244939 H 6.3890434 v 2.37426033 H 4.233465 V -2.3754709 H 0.40653222 Z m 0.74976638,0 H 4.233465 v -4.1705757 z m 0,0"
       style="fill:#000000;fill-opacity:1;fill-rule:nonzero;stroke:none"
       aria-label="4"
       transform="matrix(1.0003115,0,0,1.0003115,150.6324,41.51293)"
       clip-path="url(#clipPath4)" />
    <path
       id="path5"
       d="m 161.86,345 c 2e-5,1.1463 -0.0562,2.28983 -0.16855,3.4306 -0.11235,1.14078 -0.28033,2.27329 -0.50398,3.39753 -0.22362,1.12429 -0.50182,2.23489 -0.83456,3.33184 -0.33275,1.09693 -0.71847,2.1749 -1.15714,3.23392 -0.43866,1.05905 -0.92818,2.09403 -1.46854,3.10498 -0.54036,1.01093 -1.12896,1.99292 -1.76582,2.94602 -0.63683,0.95312 -1.31885,1.87274 -2.04607,2.75888 -0.72718,0.88607 -1.49606,1.7344 -2.30662,2.54495 -0.81055,0.81058 -1.65888,1.57944 -2.54497,2.30664 -0.88609,0.7272 -1.80571,1.40921 -2.75882,2.04602 -0.95311,0.63687 -1.93512,1.22546 -2.94606,1.76581 -1.01094,0.54037 -2.04593,1.0299 -3.10496,1.46856 -1.05904,0.43869 -2.13703,0.82441 -3.23395,1.15714 -1.09694,0.33276 -2.20754,0.61096 -3.3318,0.83456 -1.12427,0.22367 -2.25679,0.39167 -3.39756,0.504 C 129.14984,379.94382 128.0063,380 126.86,380 c -1.14629,0 -2.28983,-0.0562 -3.43059,-0.16855 -1.14078,-0.11236 -2.27331,-0.28036 -3.39758,-0.50403 -1.12427,-0.2236 -2.23487,-0.50177 -3.3318,-0.83453 -1.09694,-0.33273 -2.17493,-0.71845 -3.23397,-1.15714 -1.05903,-0.43866 -2.09402,-0.92819 -3.10495,-1.46856 -1.01095,-0.54035 -1.99298,-1.12894 -2.94608,-1.76581 -0.9531,-0.63681 -1.8727,-1.31882 -2.7588,-2.04602 -0.8861,-0.7272 -1.73442,-1.49606 -2.54498,-2.30664 -0.81055,-0.81055 -1.57943,-1.65888 -2.306624,-2.54495 -0.727203,-0.88611 -1.409233,-1.80573 -2.046081,-2.75885 -0.636849,-0.9531 -1.225449,-1.93512 -1.765801,-2.94602 -0.540359,-1.01095 -1.029876,-2.04596 -1.468551,-3.10501 -0.438667,-1.05902 -0.824372,-2.13699 -1.157112,-3.23392 -0.332756,-1.09695 -0.610947,-2.20755 -0.83458,-3.33184 -0.223625,-1.12424 -0.391609,-2.25675 -0.503959,-3.39753 -0.112359,-1.14077 -0.168541,-2.2843 -0.168541,-3.4306 0,-1.1463 0.05617,-2.28983 0.168533,-3.4306 0.112358,-1.14078 0.28035,-2.27332 0.503975,-3.39759 0.223633,-1.12423 0.501823,-2.23483 0.834572,-3.33178 0.33274,-1.09693 0.718445,-2.17493 1.157112,-3.23398 0.438675,-1.05905 0.928192,-2.09403 1.468551,-3.10495 0.540352,-1.01096 1.12896,-1.99298 1.765809,-2.94608 0.636848,-0.95309 1.31887,-1.87268 2.046081,-2.75879 0.727196,-0.88607 1.496066,-1.7344 2.306616,-2.54498 0.81056,-0.81055 1.65888,-1.57941 2.54498,-2.30661 0.8861,-0.7272 1.8057,-1.40924 2.7588,-2.04611 0.9531,-0.63681 1.93513,-1.2254 2.94608,-1.76578 1.01093,-0.54034 2.04592,-1.02984 3.10495,-1.46853 1.05904,-0.43866 2.13703,-0.82438 3.23396,-1.15711 1.09694,-0.33276 2.20754,-0.61096 3.33181,-0.83459 1.12427,-0.22361 2.2568,-0.39161 3.39757,-0.50397 1.14077,-0.11234 2.28431,-0.16852 3.4306,-0.16855 1.1463,3e-5 2.28984,0.0562 3.4306,0.16855 1.14077,0.11236 2.27329,0.28036 3.39756,0.50397 1.12426,0.22363 2.23486,0.50183 3.3318,0.83459 1.09692,0.33273 2.17491,0.71845 3.23395,1.15711 1.05903,0.43869 2.09402,0.92819 3.10496,1.46856 1.01094,0.54035 1.99295,1.12894 2.94606,1.76575 0.95311,0.63687 1.87273,1.31888 2.75882,2.04608 0.88609,0.7272 1.73442,1.49609 2.54497,2.30664 0.81056,0.81058 1.57944,1.65891 2.30664,2.54501 0.7272,0.88608 1.40922,1.80567 2.04605,2.75876 0.63686,0.9531 1.22546,1.93512 1.76582,2.94608 0.54036,1.01092 1.02988,2.0459 1.46854,3.10495 0.43867,1.05905 0.82439,2.13705 1.15714,3.23395 0.33274,1.09695 0.61094,2.20758 0.83457,3.33181 0.22364,1.12427 0.39164,2.25681 0.50399,3.39759 0.11236,1.14077 0.16855,2.2843 0.16853,3.4306 z"
       style="fill:#ffffff;fill-opacity:1;fill-rule:nonzero;stroke:#000000;stroke-width:1;stroke-linecap:butt;stroke-linejoin:miter;stroke-miterlimit:10;stroke-dasharray:none;stroke-opacity:1"
       transform="matrix(1.0003115,0,0,1.0003115,-32.424608,-169.05265)"
       clip-path="url(#clipPath6)" />
    <path
       id="path7"
       d="m 2.3738306,-5.312703 v -0.2811624 c 0.5935651,-0.1640114 1.0035936,-0.3202127 1.2339906,-0.468604 0.2264919,-0.1562013 0.4256486,-0.3826933 0.5935651,-0.6872859 0.1640114,-0.3006876 0.2499221,-0.6091852 0.2499221,-0.9215879 0,-0.4373637 -0.1640114,-0.8044369 -0.4842242,-1.1090295 -0.3124026,-0.3124026 -0.702906,-0.468604 -1.17151,-0.468604 -0.7302412,0 -1.3511415,0.3865983 -1.85879588,1.1558899 L 0.65561591,-8.2024277 c 0.37488319,-0.8630124 0.85129729,-1.515153 1.43705229,-1.9525163 0.58185,-0.437364 1.2339906,-0.656046 1.9525167,-0.656046 0.7380513,0 1.3433315,0.226492 1.8119355,0.671666 0.4764141,0.4490786 0.7185262,0.968448 0.7185262,1.5620131 0,0.3983134 -0.109341,0.7771016 -0.3280228,1.1402697 -0.2186819,0.3553581 -0.5701349,0.6716658 -1.046549,0.9528282 0.6130903,0.2928775 1.0777892,0.6560456 1.3901919,1.0934093 0.3202127,0.4373638 0.4842241,0.9840685 0.4842241,1.6401141 0,1.1051244 -0.4022184,2.0462375 -1.2027502,2.82724417 -0.7927218,0.77319662 -1.858796,1.15588989 -3.2021274,1.15588989 -0.8981577,0 -1.5542033,-0.1522963 -1.96813689,-0.45298387 C 0.4095988,-0.42750618 0.26511257,-0.69695349 0.26511257,-1.0327864 c 0,-0.238207 0.0820057,-0.4412687 0.24992214,-0.6091852 0.1757265,-0.1640114 0.3748832,-0.2499221 0.59356509,-0.2499221 0.1757265,0 0.3358329,0.03905 0.4842241,0.1093409 0.082006,0.042955 0.3787883,0.2733524 0.8903476,0.6872859 0.5076544,0.40612348 0.9840685,0.60918522 1.4214322,0.60918522 0.3826933,0 0.7107161,-0.14839127 0.9840684,-0.45298388 0.2811624,-0.30068754 0.4217436,-0.68728584 0.4217436,-1.15588994 0,-0.7185261 -0.2499221,-1.3745717 -0.7497664,-1.9681368 C 4.060805,-4.6644674 3.3305638,-5.082306 2.3738306,-5.312703 Z m 0,0"
       style="fill:#000000;fill-opacity:1;fill-rule:nonzero;stroke:none"
       aria-label="3"
       transform="matrix(1.0003115,0,0,1.0003115,90.613711,181.55655)"
       clip-path="url(#clipPath8)" />
    <path
       id="path9"
       d="m 103.43,485 c 10e-6,1.14633 -0.0562,2.28986 -0.16853,3.43063 -0.11236,1.14078 -0.28036,2.27326 -0.50399,3.3975 -0.22363,1.12426 -0.50182,2.23486 -0.83457,3.33178 -0.33275,1.09696 -0.71846,2.17493 -1.15714,3.23395 -0.43867,1.05905 -0.928177,2.09406 -1.468536,3.10501 -0.540352,1.01096 -1.12896,1.99298 -1.765809,2.94608 -0.63684,0.95309 -1.318862,1.87271 -2.046066,2.75885 -0.727196,0.88607 -1.496071,1.7344 -2.306625,2.54492 -0.810547,0.81058 -1.658875,1.57947 -2.544975,2.30664 -0.886094,0.72723 -1.805695,1.40924 -2.758805,2.04602 -0.953102,0.6369 -1.935127,1.22552 -2.946075,1.76587 -1.010941,0.54034 -2.045929,1.02984 -3.104973,1.4685 -1.059029,0.43866 -2.137016,0.82441 -3.233948,1.15711 -1.096939,0.33276 -2.207542,0.61096 -3.33181,0.83459 -1.12426,0.2237 -2.256775,0.39167 -3.397545,0.50397 C 70.719833,519.94379 69.576294,520 68.43,520 c -1.146293,0 -2.289825,-0.0562 -3.430595,-0.16858 -1.140774,-0.1123 -2.2733,-0.28027 -3.397572,-0.50397 -1.124263,-0.22363 -2.234863,-0.50183 -3.331798,-0.83459 -1.096935,-0.3327 -2.174923,-0.71845 -3.233959,-1.15711 -1.059033,-0.43866 -2.094021,-0.92816 -3.104966,-1.4685 -1.010936,-0.54035 -1.992962,-1.12897 -2.946075,-1.76587 -0.953106,-0.63678 -1.872707,-1.31879 -2.758804,-2.04602 -0.886097,-0.72717 -1.734421,-1.49606 -2.544972,-2.30664 -0.810551,-0.81052 -1.579426,-1.65885 -2.306629,-2.54498 -0.7272,-0.88608 -1.409225,-1.8057 -2.046074,-2.75885 -0.636845,-0.9531 -1.225445,-1.93509 -1.765804,-2.94605 -0.540356,-1.01096 -1.029869,-2.04593 -1.46854,-3.10498 -0.438664,-1.05902 -0.824372,-2.13699 -1.157124,-3.23395 -0.332752,-1.09692 -0.610943,-2.20752 -0.834576,-3.33178 -0.223629,-1.12424 -0.39162,-2.25672 -0.503978,-3.3975 C 33.486179,487.28986 33.43,486.14633 33.43,485 c 0,-1.14627 0.05618,-2.28983 0.168534,-3.4306 0.112358,-1.14078 0.280349,-2.27332 0.503978,-3.39762 0.223633,-1.12423 0.501828,-2.23483 0.83458,-3.33178 0.332752,-1.09693 0.71846,-2.17493 1.157123,-3.23398 0.438668,-1.05902 0.928181,-2.094 1.468537,-3.10495 0.540359,-1.01093 1.128959,-1.99295 1.765804,-2.94608 0.636849,-0.95309 1.318874,-1.87268 2.046074,-2.75876 0.727203,-0.88607 1.496078,-1.7344 2.306629,-2.54498 0.810551,-0.81052 1.658875,-1.57937 2.544972,-2.30658 0.886097,-0.7272 1.805698,-1.40927 2.758804,-2.04614 0.95311,-0.63684 1.935135,-1.22543 2.946075,-1.76581 1.010937,-0.54037 2.045926,-1.02988 3.104962,-1.46857 1.05904,-0.43863 2.137028,-0.82434 3.233963,-1.15707 1.096935,-0.33273 2.207535,-0.6109 3.331798,-0.83456 1.124272,-0.22361 2.256798,-0.39161 3.397572,-0.50397 1.14077,-0.11234 2.284302,-0.16852 3.430595,-0.16855 1.146294,3e-5 2.289833,0.0562 3.430603,0.16855 1.14077,0.11236 2.273293,0.28036 3.397553,0.50397 1.124267,0.22366 2.234871,0.50186 3.33181,0.83459 1.096931,0.33273 2.174911,0.71841 3.23394,1.15704 1.059044,0.43869 2.094032,0.9282 3.104973,1.46857 1.010948,0.54038 1.992973,1.12897 2.946075,1.76581 0.95311,0.63687 1.872711,1.31891 2.758812,2.04611 0.886101,0.7272 1.734421,1.49609 2.544968,2.30661 0.810554,0.81058 1.579429,1.65891 2.306625,2.54501 0.727204,0.88608 1.409226,1.80567 2.046066,2.75876 0.636849,0.95313 1.225457,1.93515 1.765809,2.94611 0.540359,1.01092 1.029866,2.0459 1.468536,3.10492 0.43868,1.05905 0.82439,2.13705 1.15714,3.23401 0.33275,1.09692 0.61094,2.20752 0.83457,3.33175 0.22363,1.1243 0.39163,2.25681 0.50399,3.39759 0.11235,1.14077 0.16854,2.28433 0.16853,3.4306 z"
       style="fill:#ffffff;fill-opacity:1;fill-rule:nonzero;stroke:#000000;stroke-width:1;stroke-linecap:butt;stroke-linejoin:miter;stroke-miterlimit:10;stroke-dasharray:none;stroke-opacity:1"
       transform="matrix(1.0003115,0,0,1.0003115,-32.424608,-169.05265)"
       clip-path="url(#clipPath10)" />
    <path
       id="path11"
       d="m 5.215545,-10.807732 v 8.6535541 c 0,0.6560456 0.02343,1.0738842 0.078101,1.24961067 0.062481,0.17963153 0.1796316,0.32411777 0.3592631,0.43736374 0.1874416,0.117151 0.4764141,0.17182147 0.8747275,0.17182147 H 6.7775584 V 0.00140052 H 1.2011707 v -0.29678254 h 0.2811624 c 0.4451738,0 0.7653865,-0.0507654 0.9528282,-0.15620134 0.1952516,-0.10153087 0.3280228,-0.24211207 0.3905033,-0.42174361 0.070291,-0.18744163 0.1093409,-0.61309023 0.1093409,-1.28085093 v -5.4826669 c 0,-0.4881292 -0.027335,-0.7966269 -0.078101,-0.9215879 -0.042955,-0.1249611 -0.1249611,-0.226492 -0.2499222,-0.3124027 -0.124961,-0.082006 -0.2733523,-0.1249611 -0.4373637,-0.1249611 -0.2733524,0 -0.5935651,0.085911 -0.9684483,0.2499222 L 1.0605895,-9.0270367 4.9500028,-10.807732 Z m 0,0"
       style="fill:#000000;fill-opacity:1;fill-rule:nonzero;stroke:none"
       aria-label="1"
       transform="matrix(1.0003115,0,0,1.0003115,31.59533,321.60016)"
       clip-path="url(#clipPath12)" />
    <path
       id="path13"
       d="m 333.42999,485 c 0,1.14633 -0.0562,2.28986 -0.16852,3.43063 -0.11233,1.14078 -0.28036,2.27326 -0.50402,3.3975 -0.22361,1.12426 -0.5018,2.23486 -0.83457,3.33178 -0.33273,1.09696 -0.71847,2.17493 -1.15716,3.23395 -0.43866,1.05905 -0.92817,2.09406 -1.46854,3.10501 -0.54037,1.01096 -1.12897,1.99298 -1.76584,2.94608 -0.63684,0.95309 -1.31885,1.87271 -2.04605,2.75885 -0.7272,0.88607 -1.49606,1.7344 -2.30661,2.54492 -0.81055,0.81058 -1.65887,1.57947 -2.54495,2.30664 -0.88611,0.72723 -1.80573,1.40924 -2.75885,2.04602 -0.9531,0.6369 -1.93509,1.22552 -2.94605,1.76587 -1.01092,0.54034 -2.0459,1.02984 -3.10495,1.4685 -1.05902,0.43866 -2.13699,0.82441 -3.23394,1.15711 -1.09693,0.33276 -2.20755,0.61096 -3.33185,0.83459 -1.12424,0.2237 -2.25675,0.39167 -3.39752,0.50397 -1.14078,0.11237 -2.28431,0.16858 -3.43058,0.16858 -1.14627,0 -2.28982,-0.0562 -3.4306,-0.16858 -1.14078,-0.1123 -2.27329,-0.28027 -3.39758,-0.50397 -1.12427,-0.22363 -2.23487,-0.50183 -3.33182,-0.83459 -1.09692,-0.3327 -2.1749,-0.71845 -3.23395,-1.15711 -1.05902,-0.43866 -2.09399,-0.92816 -3.10495,-1.4685 -1.01095,-0.54035 -1.99301,-1.12897 -2.9461,-1.76587 -0.9531,-0.63678 -1.87269,-1.31879 -2.75876,-2.04602 -0.88608,-0.72717 -1.73441,-1.49606 -2.54499,-2.30664 -0.81057,-0.81052 -1.57943,-1.65885 -2.30664,-2.54498 -0.7272,-0.88608 -1.40924,-1.8057 -2.04611,-2.75885 -0.63681,-0.9531 -1.2254,-1.93509 -1.76575,-2.94605 -0.54037,-1.01096 -1.02987,-2.04593 -1.46856,-3.10498 -0.43863,-1.05902 -0.82434,-2.13699 -1.15711,-3.23395 -0.33273,-1.09692 -0.61093,-2.20752 -0.83459,-3.33178 -0.22363,-1.12424 -0.3916,-2.25672 -0.50394,-3.3975 -0.11239,-1.14077 -0.16858,-2.2843 -0.16855,-3.43063 -3e-5,-1.14627 0.0562,-2.28983 0.16855,-3.4306 0.11234,-1.14078 0.28031,-2.27332 0.50394,-3.39762 0.22366,-1.12423 0.50186,-2.23483 0.83459,-3.33178 0.33277,-1.09693 0.71848,-2.17493 1.15711,-3.23398 0.43869,-1.05902 0.92819,-2.094 1.46856,-3.10495 0.54035,-1.01093 1.12894,-1.99295 1.76578,-2.94608 0.63687,-0.95309 1.31888,-1.87268 2.04608,-2.75876 0.72721,-0.88607 1.49607,-1.7344 2.30664,-2.54498 0.81058,-0.81052 1.65891,-1.57937 2.54499,-2.30658 0.88607,-0.7272 1.80566,-1.40927 2.75876,-2.04614 0.95309,-0.63684 1.93511,-1.22543 2.94607,-1.76581 1.01096,-0.54037 2.04593,-1.02988 3.10495,-1.46857 1.05905,-0.43863 2.13702,-0.82434 3.23398,-1.15707 1.09695,-0.33273 2.20755,-0.6109 3.33182,-0.83456 1.12429,-0.22361 2.2568,-0.39161 3.39758,-0.50397 1.14078,-0.11234 2.28433,-0.16852 3.4306,-0.16855 1.14627,3e-5 2.2898,0.0562 3.43058,0.16855 1.14077,0.11236 2.27328,0.28036 3.39755,0.50397 1.1243,0.22366 2.23489,0.50186 3.33182,0.83459 1.09695,0.33273 2.17492,0.71841 3.23394,1.15704 1.05905,0.43869 2.09403,0.9282 3.10495,1.46857 1.01096,0.54038 1.99298,1.12897 2.94608,1.76581 0.95312,0.63687 1.87274,1.31891 2.75885,2.04611 0.88608,0.7272 1.73437,1.49609 2.54492,2.30661 0.81055,0.81058 1.57941,1.65891 2.30661,2.54501 0.7272,0.88608 1.40921,1.80567 2.04605,2.75876 0.63687,0.95313 1.2255,1.93515 1.76587,2.94611 0.54038,1.01092 1.02988,2.0459 1.46854,3.10492 0.43869,1.05905 0.8244,2.13705 1.15713,3.23401 0.33277,1.09692 0.61096,2.20752 0.83457,3.33175 0.22366,1.1243 0.39169,2.25681 0.50402,3.39759 0.11234,1.14077 0.16852,2.28433 0.16852,3.4306 z"
       style="fill:#ffffff;fill-opacity:1;fill-rule:nonzero;stroke:#000000;stroke-width:1;stroke-linecap:butt;stroke-linejoin:miter;stroke-miterlimit:10;stroke-dasharray:none;stroke-opacity:1"
       transform="matrix(1.0003115,0,0,1.0003115,-32.424608,-169.05265)"
       clip-path="url(#clipPath14)" />
    <path
       id="path15"
       d="M 6.6239203,0.00140052 H 0.39148696 V -0.17042095 C 2.3049533,-2.4509605 3.4686533,-3.9817336 3.8747768,-4.7627402 4.2809002,-5.551557 4.483962,-6.3247536 4.483962,-7.07452 c 0,-0.5388946 -0.1718215,-0.9918785 -0.5154644,-1.3589517 -0.3358329,-0.3631681 -0.7458614,-0.5467046 -1.2339906,-0.5467046 -0.8044369,0 -1.4214322,0.4022184 -1.8587959,1.2027503 L 0.57892856,-7.871147 c 0.28116241,-0.9996886 0.70681104,-1.7377399 1.28085094,-2.218059 0.5701349,-0.476414 1.2339906,-0.718526 1.983757,-0.718526 0.5388946,0 1.0309288,0.124961 1.4682926,0.374883 0.4451738,0.249922 0.7966268,0.5935651 1.0465489,1.0309289 0.2499222,0.4295536 0.3748832,0.8356771 0.3748832,1.2183704 0,0.6872859 -0.1952516,1.3901919 -0.5779449,2.108718 -0.5310846,0.9606382 -1.6830694,2.3039697 -3.4520496,4.0299945 h 2.2961597 c 0.5623248,0 0.9254929,-0.019525 1.0934093,-0.062481 0.1640115,-0.050765 0.3006876,-0.1327712 0.4061235,-0.2499222 0.113246,-0.1132459 0.2577322,-0.3475479 0.4373638,-0.702906 h 0.2811624 z m 0,0"
       style="fill:#000000;fill-opacity:1;fill-rule:nonzero;stroke:none"
       aria-label="2"
       transform="matrix(1.0003115,0,0,1.0003115,261.66698,321.60016)"
       clip-path="url(#clipPath16)" />
    <path
       id="path17"
       d="m 82,452.73999 29.01,-69.53"
       style="fill:none;stroke:#000000;stroke-width:1;stroke-linecap:butt;stroke-linejoin:miter;stroke-miterlimit:10;stroke-dasharray:none;stroke-opacity:1"
       transform="matrix(1.0003115,0,0,1.0003115,-32.424608,-169.05265)"
       clip-path="url(#clipPath18)" />
    <path
       id="path19"
       d="m 113.03,378.37 0.53,7.80001 -2.55,-2.96002 -3.91,0.27002 z"
       style="fill:#000000;fill-opacity:1;fill-rule:nonzero;stroke:#000000;stroke-width:1;stroke-linecap:butt;stroke-linejoin:miter;stroke-miterlimit:10;stroke-dasharray:none;stroke-opacity:1"
       transform="matrix(1.0003115,0,0,1.0003115,-32.424608,-169.05265)"
       clip-path="url(#clipPath20)" />
    <path
       id="path21"
       d="M 140.67999,312.85001 170.57001,243.02"
       style="fill:none;stroke:#000000;stroke-width:1;stroke-linecap:butt;stroke-linejoin:miter;stroke-miterlimit:10;stroke-dasharray:none;stroke-opacity:1"
       transform="matrix(1.0003115,0,0,1.0003115,-32.424608,-169.05265)"
       clip-path="url(#clipPath22)" />
    <path
       id="path23"
       d="m 172.64,238.2 0.46001,7.80999 -2.53,-2.98999 -3.91001,0.23999 z"
       style="fill:#000000;fill-opacity:1;fill-rule:nonzero;stroke:#000000;stroke-width:1;stroke-linecap:butt;stroke-linejoin:miter;stroke-miterlimit:10;stroke-dasharray:none;stroke-opacity:1"
       transform="matrix(1.0003115,0,0,1.0003115,-32.424608,-169.05265)"
       clip-path="url(#clipPath24)" />
    <path
       id="path25"
       d="M 285.51999,452.47 202.12,243.45"
       style="fill:none;stroke:#000000;stroke-width:1;stroke-linecap:butt;stroke-linejoin:miter;stroke-miterlimit:10;stroke-dasharray:none;stroke-opacity:1"
       transform="matrix(1.0003115,0,0,1.0003115,-32.424608,-169.05265)"
       clip-path="url(#clipPath26)" />
    <path
       id="path27"
       d="m 200.17999,238.57001 5.84001,5.20999 -3.9,-0.33 -2.6,2.92 z"
       style="fill:#000000;fill-opacity:1;fill-rule:nonzero;stroke:#000000;stroke-width:1;stroke-linecap:butt;stroke-linejoin:miter;stroke-miterlimit:10;stroke-dasharray:none;stroke-opacity:1"
       transform="matrix(1.0003115,0,0,1.0003115,-32.424608,-169.05265)"
       clip-path="url(#clipPath28)" />
    <path
       id="path29"
       d="M 271.26001,462.92999 158.86999,371.20001"
       style="fill:none;stroke:#000000;stroke-width:1;stroke-linecap:butt;stroke-linejoin:miter;stroke-miterlimit:10;stroke-dasharray:none;stroke-opacity:1"
       transform="matrix(1.0003115,0,0,1.0003115,-32.424608,-169.05265)"
       clip-path="url(#clipPath30)" />
    <path
       id="path31"
       d="m 154.8,367.88 7.64,1.71 -3.57001,1.61001 -0.86,3.81998 z"
       style="fill:#000000;fill-opacity:1;fill-rule:nonzero;stroke:#000000;stroke-width:1;stroke-linecap:butt;stroke-linejoin:miter;stroke-miterlimit:10;stroke-dasharray:none;stroke-opacity:1"
       transform="matrix(1.0003115,0,0,1.0003115,-32.424608,-169.05265)"
       clip-path="url(#clipPath32)" />
    <path
       id="path33"
       d="m 681.85999,205 c 0,1.1463 -0.0562,2.28984 -0.16858,3.43062 -0.11237,1.14076 -0.2804,2.27328 -0.50409,3.39755 -0.22357,1.12427 -0.50177,2.23486 -0.83454,3.3318 -0.3327,1.09693 -0.71838,2.1749 -1.1571,3.23394 -0.43866,1.05903 -0.92816,2.09404 -1.46851,3.10498 -0.54034,1.01094 -1.1289,1.99295 -1.76581,2.94606 -0.63684,0.95311 -1.31884,1.87272 -2.04608,2.75882 -0.72717,0.88609 -1.49603,1.7344 -2.30658,2.54495 -0.81054,0.81056 -1.65887,1.57944 -2.54492,2.30662 -0.88611,0.72721 -1.80572,1.40923 -2.75891,2.04605 -0.95306,0.63686 -1.93512,1.22548 -2.94604,1.76584 -1.01093,0.54036 -2.04596,1.02986 -3.10498,1.46852 -1.05903,0.43868 -2.13697,0.82439 -3.23395,1.15715 -1.09699,0.33275 -2.20758,0.61095 -3.33185,0.83457 -1.12421,0.22363 -2.25671,0.39163 -3.39746,0.50398 -1.14075,0.11237 -2.2843,0.16855 -3.4306,0.16855 -1.14631,0 -2.2898,-0.0562 -3.43061,-0.16855 -1.14081,-0.11235 -2.27337,-0.28035 -3.39764,-0.504 -1.12427,-0.22361 -2.23486,-0.5018 -3.33179,-0.83455 -1.09698,-0.33276 -2.17499,-0.71847 -3.23401,-1.15715 -1.05902,-0.43866 -2.09399,-0.92816 -3.10498,-1.46852 -1.01092,-0.54036 -1.99292,-1.12898 -2.9461,-1.76584 -0.95307,-0.63682 -1.87268,-1.31884 -2.75879,-2.04603 -0.88605,-0.72719 -1.73438,-1.49608 -2.54492,-2.30664 -0.81049,-0.81055 -1.57935,-1.65888 -2.30658,-2.54497 -0.72718,-0.88609 -1.40925,-1.80571 -2.04615,-2.75882 -0.63678,-0.95309 -1.2254,-1.9351 -1.76574,-2.94604 -0.54035,-1.01096 -1.02991,-2.04596 -1.46857,-3.105 -0.43866,-1.05902 -0.82434,-2.13701 -1.15711,-3.23395 -0.33276,-1.09691 -0.61096,-2.2075 -0.83459,-3.33178 -0.22357,-1.12427 -0.39154,-2.25679 -0.50391,-3.39756 -0.1123,-1.14076 -0.16845,-2.2843 -0.16851,-3.4306 6e-5,-1.14629 0.0562,-2.28981 0.16851,-3.43059 0.11237,-1.14078 0.28034,-2.2733 0.50391,-3.39758 0.22363,-1.12425 0.50183,-2.23485 0.83453,-3.33179 0.33277,-1.09694 0.71845,-2.17494 1.15711,-3.23398 0.43872,-1.05903 0.92828,-2.09402 1.46863,-3.10496 0.54034,-1.01094 1.12896,-1.99297 1.76574,-2.94608 0.6369,-0.95311 1.31897,-1.87269 2.04615,-2.75879 0.72723,-0.88609 1.49609,-1.73442 2.30658,-2.54498 0.81054,-0.81055 1.65887,-1.57942 2.54492,-2.30661 0.88617,-0.72722 1.80578,-1.40925 2.75885,-2.04611 0.95318,-0.63684 1.93518,-1.22543 2.9461,-1.76579 1.01093,-0.54035 2.04596,-1.02987 3.10498,-1.46854 1.05902,-0.43866 2.13703,-0.82437 3.23395,-1.15712 1.09699,-0.33275 2.20758,-0.61093 3.33185,-0.83456 1.12427,-0.22362 2.25684,-0.39161 3.39764,-0.50397 1.14075,-0.11237 2.28424,-0.16855 3.43055,-0.16855 1.1463,0 2.28985,0.0562 3.43066,0.16855 1.14069,0.11236 2.27319,0.28035 3.3974,0.50397 1.12427,0.22363 2.23486,0.50181 3.33185,0.83456 1.09692,0.33275 2.17486,0.71846 3.23388,1.15712 1.05909,0.43867 2.09412,0.92819 3.10505,1.46854 1.01092,0.54036 1.99298,1.12895 2.94604,1.76579 0.95319,0.63686 1.8728,1.31889 2.75885,2.04608 0.88611,0.72722 1.73444,1.49609 2.54498,2.30664 0.81055,0.81056 1.57941,1.65889 2.30664,2.54498 0.72718,0.8861 1.40918,1.80568 2.04602,2.75879 0.63691,0.95311 1.22547,1.93515 1.76581,2.94609 0.54035,1.01094 1.02979,2.04592 1.46845,3.10495 0.43872,1.05904 0.82446,2.13703 1.15716,3.23397 0.33277,1.09694 0.61097,2.20755 0.83454,3.3318 0.22369,1.12428 0.39178,2.2568 0.50415,3.39758 0.11236,1.14078 0.16852,2.2843 0.16852,3.43059 z"
       style="fill:#ffffff;fill-opacity:1;fill-rule:nonzero;stroke:#000000;stroke-width:1;stroke-linecap:butt;stroke-linejoin:miter;stroke-miterlimit:10;stroke-dasharray:none;stroke-opacity:1"
       transform="matrix(1.0003115,0,0,1.0003115,-32.424608,-169.05265)"
       clip-path="url(#clipPath34)" />
    <path
       id="path35"
       d="M 0.40775362,-3.9999648 5.4374367,-10.810343 h 0.9528281 v 6.8103782 h 0.9684483 v 1.6244939 H 6.3902648 v 2.37426033 H 4.2346864 V -2.3754709 H 0.40775362 Z m 0.74976638,0 h 3.0771664 v -4.1705757 z m 0,0"
       style="fill:#000000;fill-opacity:1;fill-rule:nonzero;stroke:none"
       aria-label="4"
       transform="matrix(1.0003115,0,0,1.0003115,610.77571,41.51293)"
       clip-path="url(#clipPath36)" />
    <path
       id="path37"
       d="m 621.85999,345 c 6e-5,1.1463 -0.0562,2.28983 -0.16852,3.4306 -0.11237,1.14078 -0.28034,2.27329 -0.50403,3.39753 -0.22363,1.12429 -0.50177,2.23489 -0.83447,3.33184 -0.33283,1.09693 -0.71857,2.1749 -1.15723,3.23392 -0.43866,1.05905 -0.92816,2.09403 -1.46857,3.10498 -0.54034,1.01093 -1.12896,1.99292 -1.76587,2.94602 -0.63678,0.95312 -1.31872,1.87274 -2.04596,2.75888 -0.72723,0.88607 -1.49609,1.7344 -2.3067,2.54495 -0.81048,0.81058 -1.65881,1.57944 -2.54492,2.30664 -0.88611,0.7272 -1.80572,1.40921 -2.75891,2.04602 -0.95306,0.63687 -1.93506,1.22546 -2.94598,1.76581 -1.01093,0.54037 -2.04596,1.0299 -3.10498,1.46856 -1.05903,0.43869 -2.13697,0.82441 -3.23389,1.15714 -1.09699,0.33276 -2.20758,0.61096 -3.33185,0.83456 -1.12421,0.22367 -2.25671,0.39167 -3.39746,0.504 -1.14081,0.11237 -2.28436,0.16855 -3.43066,0.16855 -1.14631,0 -2.28986,-0.0562 -3.43061,-0.16855 -1.14081,-0.11236 -2.27331,-0.28036 -3.39758,-0.50403 -1.12427,-0.2236 -2.23486,-0.50177 -3.33173,-0.83453 -1.09698,-0.33273 -2.17498,-0.71845 -3.23413,-1.15714 -1.05902,-0.43866 -2.09399,-0.92819 -3.10492,-1.46856 -1.01092,-0.54035 -1.99292,-1.12894 -2.94604,-1.76581 -0.95307,-0.63681 -1.87262,-1.31882 -2.75873,-2.04602 -0.88611,-0.7272 -1.73444,-1.49606 -2.54504,-2.30664 -0.81055,-0.81055 -1.57941,-1.65888 -2.30664,-2.54495 -0.72724,-0.88611 -1.40925,-1.80573 -2.04609,-2.75885 -0.63678,-0.9531 -1.2254,-1.93512 -1.76574,-2.94602 -0.54035,-1.01095 -1.02991,-2.04596 -1.46863,-3.10501 -0.43866,-1.05902 -0.82434,-2.13699 -1.15704,-3.23392 -0.33277,-1.09695 -0.61097,-2.20755 -0.8346,-3.33184 -0.22357,-1.12424 -0.3916,-2.25675 -0.50397,-3.39753 -0.11236,-1.14077 -0.16851,-2.2843 -0.16851,-3.4306 0,-1.1463 0.0562,-2.28983 0.16851,-3.4306 0.11237,-1.14078 0.28034,-2.27332 0.50391,-3.39759 0.22363,-1.12423 0.50183,-2.23483 0.83466,-3.33178 0.3327,-1.09693 0.71838,-2.17493 1.15704,-3.23398 0.43872,-1.05905 0.92828,-2.09403 1.46863,-3.10495 0.54034,-1.01096 1.12896,-1.99298 1.76574,-2.94608 0.63684,-0.95309 1.31891,-1.87268 2.04615,-2.75879 0.72717,-0.88607 1.49603,-1.7344 2.30658,-2.54498 0.8106,-0.81055 1.65893,-1.57941 2.54498,-2.30661 0.88617,-0.7272 1.80572,-1.40924 2.75879,-2.04611 0.95312,-0.63681 1.93512,-1.2254 2.94604,-1.76578 1.01093,-0.54034 2.0459,-1.02984 3.10492,-1.46853 1.05915,-0.43866 2.13715,-0.82438 3.23407,-1.15711 1.09693,-0.33276 2.20752,-0.61096 3.33179,-0.83459 1.12427,-0.22361 2.25677,-0.39161 3.39758,-0.50397 1.14075,-0.11234 2.2843,-0.16852 3.43061,-0.16855 1.1463,3e-5 2.28985,0.0562 3.43066,0.16855 1.14075,0.11236 2.27325,0.28036 3.39746,0.50397 1.12427,0.22363 2.23486,0.50183 3.33185,0.83459 1.09692,0.33273 2.17486,0.71845 3.23389,1.15711 1.05902,0.43869 2.09405,0.92819 3.10498,1.46856 1.01092,0.54035 1.99292,1.12894 2.94598,1.76575 0.95319,0.63687 1.8728,1.31888 2.75891,2.04608 0.88611,0.7272 1.73444,1.49609 2.54492,2.30664 0.81061,0.81058 1.57947,1.65891 2.3067,2.54501 0.72724,0.88608 1.40918,1.80567 2.04596,2.75876 0.63691,0.9531 1.22553,1.93512 1.76593,2.94608 0.54035,1.01092 1.02985,2.0459 1.46851,3.10495 0.43866,1.05905 0.8244,2.13705 1.15723,3.23395 0.3327,1.09695 0.61084,2.20758 0.83447,3.33181 0.22369,1.12427 0.39166,2.25681 0.50397,3.39759 0.11242,1.14077 0.16864,2.2843 0.16858,3.4306 z"
       style="fill:#ffffff;fill-opacity:1;fill-rule:nonzero;stroke:#000000;stroke-width:1;stroke-linecap:butt;stroke-linejoin:miter;stroke-miterlimit:10;stroke-dasharray:none;stroke-opacity:1"
       transform="matrix(1.0003115,0,0,1.0003115,-32.424608,-169.05265)"
       clip-path="url(#clipPath38)" />
    <path
       id="path39"
       d="m 2.375052,-5.312703 v -0.2811624 c 0.5935651,-0.1640114 1.0035936,-0.3202127 1.2339906,-0.468604 0.2264919,-0.1562013 0.4256486,-0.3826933 0.5935651,-0.6872859 0.1640114,-0.3006876 0.2499221,-0.6091852 0.2499221,-0.9215879 0,-0.4373637 -0.1640114,-0.8044369 -0.4842242,-1.1090295 -0.3124026,-0.3124026 -0.702906,-0.468604 -1.17151,-0.468604 -0.7302412,0 -1.3511415,0.3865983 -1.85879588,1.1558899 L 0.65683731,-8.2024277 c 0.37488319,-0.8630124 0.85129729,-1.515153 1.43705229,-1.9525163 0.58185,-0.437364 1.2339906,-0.656046 1.9525167,-0.656046 0.7380513,0 1.3433315,0.226492 1.8119355,0.671666 0.4764141,0.4490786 0.7185262,0.968448 0.7185262,1.5620131 0,0.3983134 -0.109341,0.7771016 -0.3280228,1.1402697 -0.2186819,0.3553581 -0.5701349,0.6716658 -1.046549,0.9528282 0.6130903,0.2928775 1.0777892,0.6560456 1.3901919,1.0934093 0.3202127,0.4373638 0.4842241,0.9840685 0.4842241,1.6401141 0,1.1051244 -0.4022184,2.0462375 -1.2027502,2.82724417 -0.7927218,0.77319662 -1.8587959,1.15588989 -3.2021274,1.15588989 -0.8981577,0 -1.5542033,-0.1522963 -1.96813689,-0.45298387 -0.2928775,-0.20696677 -0.43736374,-0.47641408 -0.43736374,-0.81224699 0,-0.238207 0.0820057,-0.4412687 0.24992214,-0.6091852 0.1757265,-0.1640114 0.37488321,-0.2499221 0.59356509,-0.2499221 0.1757265,0 0.3358329,0.03905 0.4842241,0.1093409 0.082006,0.042955 0.3787883,0.2733524 0.8903477,0.6872859 0.5076543,0.40612348 0.9840684,0.60918522 1.4214321,0.60918522 0.3826933,0 0.7107161,-0.14839127 0.9840684,-0.45298388 0.2811624,-0.30068754 0.4217436,-0.68728584 0.4217436,-1.15588994 0,-0.7185261 -0.2499221,-1.3745717 -0.7497664,-1.9681368 C 4.0620265,-4.6644674 3.3317852,-5.082306 2.375052,-5.312703 Z m 0,0"
       style="fill:#000000;fill-opacity:1;fill-rule:nonzero;stroke:none"
       aria-label="3"
       transform="matrix(1.0003115,0,0,1.0003115,550.75702,181.55655)"
       clip-path="url(#clipPath40)" />
    <path
       id="path41"
       d="m 563.42999,485 c 6e-5,1.14633 -0.0562,2.28986 -0.16858,3.43063 -0.1123,1.14078 -0.28027,2.27326 -0.50396,3.3975 -0.22364,1.12426 -0.50183,2.23486 -0.83454,3.33178 -0.33276,1.09696 -0.7185,2.17493 -1.15722,3.23395 -0.43866,1.05905 -0.92817,2.09406 -1.46857,3.10501 -0.54035,1.01096 -1.12891,1.99298 -1.76581,2.94608 -0.63684,0.95309 -1.31885,1.87271 -2.04602,2.75885 -0.72717,0.88607 -1.49603,1.7344 -2.30664,2.54492 -0.81049,0.81058 -1.65881,1.57947 -2.54498,2.30664 -0.88611,0.72723 -1.80573,1.40924 -2.75885,2.04602 -0.95307,0.6369 -1.93512,1.22552 -2.94605,1.76587 -1.01092,0.54034 -2.04596,1.02984 -3.10498,1.4685 -1.05902,0.43866 -2.13696,0.82441 -3.23395,1.15711 -1.09692,0.33276 -2.20752,0.61096 -3.33178,0.83459 -1.12427,0.2237 -2.25678,0.39167 -3.39746,0.50397 -1.14081,0.11237 -2.28431,0.16858 -3.43061,0.16858 -1.1463,0 -2.28979,-0.0562 -3.4306,-0.16858 -1.14075,-0.1123 -2.27325,-0.28027 -3.39758,-0.50397 -1.12433,-0.22363 -2.23493,-0.50183 -3.33179,-0.83459 -1.09692,-0.3327 -2.17493,-0.71845 -3.23401,-1.15711 -1.05902,-0.43866 -2.09399,-0.92816 -3.10495,-1.4685 -1.01096,-0.54035 -1.99298,-1.12897 -2.94611,-1.76587 -0.95306,-0.63678 -1.87265,-1.31879 -2.75872,-2.04602 -0.88611,-0.72717 -1.73444,-1.49606 -2.54502,-2.30664 -0.81054,-0.81052 -1.5794,-1.65885 -2.30661,-2.54498 -0.72723,-0.88608 -1.40927,-1.8057 -2.04614,-2.75885 -0.63684,-0.9531 -1.22543,-1.93509 -1.76581,-2.94605 -0.54034,-1.01096 -1.02984,-2.04593 -1.46853,-3.10498 -0.43863,-1.05902 -0.82434,-2.13699 -1.15708,-3.23395 -0.33276,-1.09692 -0.61096,-2.20752 -0.83462,-3.33178 -0.22361,-1.12424 -0.39157,-2.25672 -0.50394,-3.3975 -0.11233,-1.14077 -0.16852,-2.2843 -0.16849,-3.43063 -3e-5,-1.14627 0.0562,-2.28983 0.16852,-3.4306 0.11234,-1.14078 0.28034,-2.27332 0.50394,-3.39762 0.22366,-1.12423 0.50186,-2.23483 0.83459,-3.33178 0.33274,-1.09693 0.71845,-2.17493 1.15708,-3.23398 0.43869,-1.05902 0.92819,-2.094 1.46856,-3.10495 0.54035,-1.01093 1.12894,-1.99295 1.76578,-2.94608 0.63687,-0.95309 1.31891,-1.87268 2.04611,-2.75876 0.72721,-0.88607 1.4961,-1.7344 2.30664,-2.54498 0.81058,-0.81052 1.65891,-1.57937 2.54499,-2.30658 0.8861,-0.7272 1.80569,-1.40927 2.75875,-2.04614 0.95313,-0.63684 1.93515,-1.22543 2.94611,-1.76581 1.01096,-0.54037 2.04593,-1.02988 3.10495,-1.46857 1.05908,-0.43863 2.13709,-0.82434 3.23401,-1.15707 1.09686,-0.33273 2.20746,-0.6109 3.33179,-0.83456 1.12433,-0.22361 2.25683,-0.39161 3.39758,-0.50397 1.14081,-0.11234 2.2843,-0.16852 3.4306,-0.16855 1.1463,3e-5 2.2898,0.0562 3.43061,0.16855 1.14074,0.11236 2.27325,0.28036 3.39752,0.50397 1.12427,0.22366 2.23486,0.50186 3.33172,0.83459 1.09699,0.33273 2.17499,0.71841 3.23401,1.15704 1.05902,0.43869 2.09406,0.9282 3.10498,1.46857 1.01093,0.54038 1.99298,1.12897 2.94605,1.76581 0.95312,0.63687 1.87274,1.31891 2.75879,2.04611 0.88617,0.7272 1.73449,1.49609 2.54498,2.30661 0.81061,0.81058 1.57947,1.65891 2.30664,2.54501 0.72717,0.88608 1.40918,1.80567 2.04596,2.75876 0.6369,0.95313 1.22552,1.93515 1.76587,2.94611 0.5404,1.01092 1.02991,2.0459 1.46857,3.10492 0.43872,1.05905 0.82446,2.13705 1.15722,3.23401 0.33271,1.09692 0.6109,2.20752 0.83454,3.33175 0.22369,1.1243 0.39166,2.25681 0.50402,3.39759 0.11237,1.14077 0.16858,2.28433 0.16852,3.4306 z"
       style="fill:#ffffff;fill-opacity:1;fill-rule:nonzero;stroke:#000000;stroke-width:1;stroke-linecap:butt;stroke-linejoin:miter;stroke-miterlimit:10;stroke-dasharray:none;stroke-opacity:1"
       transform="matrix(1.0003115,0,0,1.0003115,-32.424608,-169.05265)"
       clip-path="url(#clipPath42)" />
    <path
       id="path43"
       d="m 5.2167664,-10.807732 v 8.6535541 c 0,0.6560456 0.02343,1.0738842 0.078101,1.24961067 0.062481,0.17963153 0.1796316,0.32411777 0.3592631,0.43736374 0.1874416,0.117151 0.4764141,0.17182147 0.8747275,0.17182147 H 6.7787798 V 0.00140052 H 1.2023921 v -0.29678254 h 0.2811624 c 0.4451738,0 0.7653866,-0.0507654 0.9528282,-0.15620134 C 2.6316343,-0.55311423 2.7644055,-0.69369543 2.826886,-0.87332697 2.8971766,-1.0607686 2.9362269,-1.4864172 2.9362269,-2.1541779 v -5.4826669 c 0,-0.4881292 -0.027335,-0.7966269 -0.078101,-0.9215879 -0.042955,-0.1249611 -0.1249611,-0.226492 -0.2499222,-0.3124027 -0.124961,-0.082006 -0.2733523,-0.1249611 -0.4373637,-0.1249611 -0.2733524,0 -0.5935651,0.085911 -0.9684483,0.2499222 L 1.0618109,-9.0270367 4.9512242,-10.807732 Z m 0,0"
       style="fill:#000000;fill-opacity:1;fill-rule:nonzero;stroke:none"
       aria-label="1"
       transform="matrix(1.0003115,0,0,1.0003115,491.73864,321.60016)"
       clip-path="url(#clipPath44)" />
    <path
       id="path45"
       d="m 793.42999,485 c 0,1.14633 -0.0562,2.28986 -0.16858,3.43063 -0.11236,1.14078 -0.28033,2.27326 -0.50402,3.3975 -0.22364,1.12426 -0.50184,2.23486 -0.83454,3.33178 -0.33276,1.09696 -0.7185,2.17493 -1.15716,3.23395 -0.43866,1.05905 -0.9281,2.09406 -1.46845,3.10501 -0.54034,1.01096 -1.12897,1.99298 -1.76587,2.94608 -0.63684,0.95309 -1.31885,1.87271 -2.04602,2.75885 -0.72717,0.88607 -1.49603,1.7344 -2.30664,2.54492 -0.81048,0.81058 -1.65881,1.57947 -2.54492,2.30664 -0.88611,0.72723 -1.80573,1.40924 -2.75891,2.04602 -0.95307,0.6369 -1.93512,1.22552 -2.94605,1.76587 -1.01092,0.54034 -2.04596,1.02984 -3.10504,1.4685 -1.05902,0.43866 -2.13702,0.82441 -3.23395,1.15711 -1.09692,0.33276 -2.20752,0.61096 -3.33178,0.83459 -1.12421,0.2237 -2.25672,0.39167 -3.39746,0.50397 -1.14081,0.11237 -2.28431,0.16858 -3.43061,0.16858 -1.14624,0 -2.28979,-0.0562 -3.43066,-0.16858 -1.14075,-0.1123 -2.27332,-0.28027 -3.39765,-0.50397 -1.12426,-0.22363 -2.23486,-0.50183 -3.33172,-0.83459 -1.09693,-0.3327 -2.17493,-0.71845 -3.23401,-1.15711 -1.05902,-0.43866 -2.09399,-0.92816 -3.10492,-1.4685 -1.01093,-0.54035 -1.99292,-1.12897 -2.94611,-1.76587 -0.95306,-0.63678 -1.87268,-1.31879 -2.75878,-2.04602 -0.88611,-0.72717 -1.73444,-1.49606 -2.54499,-2.30664 -0.81054,-0.81052 -1.5794,-1.65885 -2.30664,-2.54498 -0.72723,-0.88608 -1.40924,-1.8057 -2.04614,-2.75885 -0.63678,-0.9531 -1.2254,-1.93509 -1.76575,-2.94605 -0.54034,-1.01096 -1.02984,-2.04593 -1.46856,-3.10498 -0.43866,-1.05902 -0.82435,-2.13699 -1.15705,-3.23395 -0.3327,-1.09692 -0.6109,-2.20752 -0.83453,-3.33178 -0.22357,-1.12424 -0.3916,-2.25672 -0.50397,-3.3975 -0.1123,-1.14077 -0.16846,-2.2843 -0.16852,-3.43063 6e-5,-1.14627 0.0562,-2.28983 0.16858,-3.4306 0.11237,-1.14078 0.28034,-2.27332 0.50391,-3.39762 0.22363,-1.12423 0.50183,-2.23483 0.83459,-3.33178 0.33271,-1.09693 0.71839,-2.17493 1.15705,-3.23398 0.43866,-1.05902 0.92822,-2.094 1.46856,-3.10495 0.54035,-1.01093 1.12897,-1.99295 1.76575,-2.94608 0.6369,-0.95309 1.31891,-1.87268 2.04614,-2.75876 0.72718,-0.88607 1.49604,-1.7344 2.30658,-2.54498 0.81055,-0.81052 1.65888,-1.57937 2.54492,-2.30658 0.88611,-0.7272 1.80573,-1.40927 2.75879,-2.04614 0.95319,-0.63684 1.93524,-1.22543 2.94617,-1.76581 1.01093,-0.54037 2.0459,-1.02988 3.10492,-1.46857 1.05908,-0.43863 2.13708,-0.82434 3.23407,-1.15707 1.09686,-0.33273 2.2074,-0.6109 3.33166,-0.83456 1.12433,-0.22361 2.2569,-0.39161 3.39771,-0.50397 1.14081,-0.11234 2.28436,-0.16852 3.4306,-0.16855 1.1463,3e-5 2.2898,0.0562 3.43061,0.16855 1.14074,0.11236 2.27325,0.28036 3.39752,0.50397 1.12427,0.22366 2.23486,0.50186 3.33178,0.83459 1.09699,0.33273 2.17493,0.71841 3.23395,1.15704 1.05902,0.43869 2.09406,0.9282 3.10504,1.46857 1.01093,0.54038 1.99299,1.12897 2.94605,1.76581 0.95319,0.63687 1.8728,1.31891 2.75885,2.04611 0.88611,0.7272 1.73444,1.49609 2.54492,2.30661 0.81061,0.81058 1.57947,1.65891 2.30664,2.54501 0.72717,0.88608 1.40918,1.80567 2.04596,2.75876 0.6369,0.95313 1.22553,1.93515 1.76587,2.94611 0.54034,1.01092 1.02985,2.0459 1.46851,3.10492 0.43866,1.05905 0.8244,2.13705 1.15716,3.23401 0.3327,1.09692 0.6109,2.20752 0.83454,3.33175 0.22369,1.1243 0.39166,2.25681 0.50402,3.39759 0.11237,1.14077 0.16858,2.28433 0.16858,3.4306 z"
       style="fill:#ffffff;fill-opacity:1;fill-rule:nonzero;stroke:#000000;stroke-width:1;stroke-linecap:butt;stroke-linejoin:miter;stroke-miterlimit:10;stroke-dasharray:none;stroke-opacity:1"
       transform="matrix(1.0003115,0,0,1.0003115,-32.424608,-169.05265)"
       clip-path="url(#clipPath46)" />
    <path
       id="path47"
       d="M 6.6212367,0.00140052 H 0.38880333 V -0.17042095 C 2.3022697,-2.4509605 3.4659697,-3.9817336 3.8720931,-4.7627402 4.2782166,-5.551557 4.4812783,-6.3247536 4.4812783,-7.07452 c 0,-0.5388946 -0.1718214,-0.9918785 -0.5154644,-1.3589517 -0.3358328,-0.3631681 -0.7458613,-0.5467046 -1.2339905,-0.5467046 -0.8044369,0 -1.4214322,0.4022184 -1.85879593,1.2027503 L 0.57624493,-7.8711468 C 0.85740734,-8.8708354 1.283056,-9.6088867 1.8570959,-10.089206 c 0.5701349,-0.476414 1.2339906,-0.718526 1.983757,-0.718526 0.5388946,0 1.0309288,0.124961 1.4682925,0.374883 0.4451738,0.249922 0.7966269,0.5935653 1.046549,1.0309291 0.2499221,0.4295536 0.3748832,0.8356771 0.3748832,1.2183704 0,0.6872859 -0.1952517,1.3901919 -0.5779449,2.108718 -0.5310846,0.9606382 -1.6830695,2.3039697 -3.4520496,4.0299945 h 2.2961597 c 0.5623248,0 0.9254929,-0.019525 1.0934093,-0.062481 0.1640114,-0.050765 0.3006876,-0.1327712 0.4061235,-0.2499222 0.113246,-0.1132459 0.2577322,-0.3475479 0.4373637,-0.702906 h 0.2811624 z m 0,0"
       style="fill:#000000;fill-opacity:1;fill-rule:nonzero;stroke:none"
       aria-label="2"
       transform="matrix(1.0003115,0,0,1.0003115,721.81029,321.60016)"
       clip-path="url(#clipPath48)" />
    <path
       id="path49"
       d="m 542,452.73999 29.01001,-69.53"
       style="fill:none;stroke:#000000;stroke-width:1;stroke-linecap:butt;stroke-linejoin:miter;stroke-miterlimit:10;stroke-dasharray:none;stroke-opacity:1"
       transform="matrix(1.0003115,0,0,1.0003115,-32.424608,-169.05265)"
       clip-path="url(#clipPath50)" />
    <path
       id="path51"
       d="m 573.03003,378.37 0.52997,7.80001 -2.54999,-2.96002 -3.91003,0.27002 z"
       style="fill:#000000;fill-opacity:1;fill-rule:nonzero;stroke:#000000;stroke-width:1;stroke-linecap:butt;stroke-linejoin:miter;stroke-miterlimit:10;stroke-dasharray:none;stroke-opacity:1"
       transform="matrix(1.0003115,0,0,1.0003115,-32.424608,-169.05265)"
       clip-path="url(#clipPath52)" />
    <path
       id="path53"
       d="M 600.67999,312.85001 630.57001,243.02"
       style="fill:none;stroke:#000000;stroke-width:1;stroke-linecap:butt;stroke-linejoin:miter;stroke-miterlimit:10;stroke-dasharray:none;stroke-opacity:1"
       transform="matrix(1.0003115,0,0,1.0003115,-32.424608,-169.05265)"
       clip-path="url(#clipPath54)" />
    <path
       id="path55"
       d="m 632.64001,238.2 0.45997,7.80999 -2.52997,-2.98999 -3.91004,0.23999 z"
       style="fill:#000000;fill-opacity:1;fill-rule:nonzero;stroke:#000000;stroke-width:1;stroke-linecap:butt;stroke-linejoin:miter;stroke-miterlimit:10;stroke-dasharray:none;stroke-opacity:1"
       transform="matrix(1.0003115,0,0,1.0003115,-32.424608,-169.05265)"
       clip-path="url(#clipPath56)" />
    <path
       id="path57"
       d="M 731.26001,462.92999 618.87,371.20001"
       style="fill:none;stroke:#000000;stroke-width:1;stroke-linecap:butt;stroke-linejoin:miter;stroke-miterlimit:10;stroke-dasharray:none;stroke-opacity:1"
       transform="matrix(1.0003115,0,0,1.0003115,-32.424608,-169.05265)"
       clip-path="url(#clipPath58)" />
    <path
       id="path59"
       d="m 614.79999,367.88 7.64001,1.71 -3.57,1.61001 -0.85999,3.81998 z"
       style="fill:#000000;fill-opacity:1;fill-rule:nonzero;stroke:#000000;stroke-width:1;stroke-linecap:butt;stroke-linejoin:miter;stroke-miterlimit:10;stroke-dasharray:none;stroke-opacity:1"
       transform="matrix(1.0003115,0,0,1.0003115,-32.424608,-169.05265)"
       clip-path="url(#clipPath60)" />
    <path
       id="path61"
       d="m 738.42999,345 c 0,1.1463 -0.0562,2.28983 -0.16852,3.4306 -0.11236,1.14078 -0.28039,2.27329 -0.50408,3.39753 -0.22358,1.12429 -0.50177,2.23489 -0.83454,3.33184 -0.33276,1.09693 -0.7185,2.1749 -1.15716,3.23392 -0.43866,1.05905 -0.9281,2.09403 -1.46845,3.10498 -0.54034,1.01093 -1.12897,1.99292 -1.76587,2.94602 -0.63684,0.95312 -1.31885,1.87274 -2.04602,2.75888 -0.72717,0.88607 -1.49603,1.7344 -2.30664,2.54495 -0.81055,0.81058 -1.65887,1.57944 -2.54498,2.30664 -0.88611,0.7272 -1.80573,1.40921 -2.75891,2.04602 -0.95307,0.63687 -1.93506,1.22546 -2.94599,1.76581 -1.01092,0.54037 -2.0459,1.0299 -3.10498,1.46856 -1.05902,0.43869 -2.13702,0.82441 -3.23395,1.15714 -1.09692,0.33276 -2.20751,0.61096 -3.33184,0.83456 -1.12421,0.22367 -2.25672,0.39167 -3.39753,0.504 -1.14068,0.11237 -2.28424,0.16855 -3.43054,0.16855 -1.14624,0 -2.28979,-0.0562 -3.4306,-0.16855 -1.14081,-0.11236 -2.27332,-0.28036 -3.39764,-0.50403 -1.12421,-0.2236 -2.23481,-0.50177 -3.33179,-0.83453 -1.09693,-0.33273 -2.17493,-0.71845 -3.23401,-1.15714 -1.05902,-0.43866 -2.09399,-0.92819 -3.10492,-1.46856 -1.01093,-0.54035 -1.99298,-1.12894 -2.94611,-1.76581 -0.95306,-0.63681 -1.87268,-1.31882 -2.75872,-2.04602 -0.88617,-0.7272 -1.7345,-1.49606 -2.54505,-2.30664 -0.81054,-0.81055 -1.5794,-1.65888 -2.30658,-2.54495 -0.72723,-0.88611 -1.40924,-1.80573 -2.04608,-2.75885 -0.63684,-0.9531 -1.22546,-1.93512 -1.76581,-2.94602 -0.54034,-1.01095 -1.0299,-2.04596 -1.46856,-3.10501 -0.43866,-1.05902 -0.82434,-2.13699 -1.15705,-3.23392 -0.33276,-1.09695 -0.61096,-2.20755 -0.83465,-3.33184 -0.22357,-1.12424 -0.39154,-2.25675 -0.50391,-3.39753 -0.11236,-1.14077 -0.16852,-2.2843 -0.16852,-3.4306 0,-1.1463 0.0562,-2.28983 0.16858,-3.4306 0.11231,-1.14078 0.28028,-2.27332 0.50391,-3.39759 0.22369,-1.12423 0.50189,-2.23483 0.83465,-3.33178 0.33271,-1.09693 0.71833,-2.17493 1.15699,-3.23398 0.43866,-1.05905 0.92822,-2.09403 1.46856,-3.10495 0.54035,-1.01096 1.12897,-1.99298 1.76581,-2.94608 0.63684,-0.95309 1.31885,-1.87268 2.04608,-2.75879 0.72718,-0.88607 1.49604,-1.7344 2.30658,-2.54498 0.81055,-0.81055 1.65888,-1.57941 2.54505,-2.30661 0.88604,-0.7272 1.80566,-1.40924 2.75872,-2.04611 0.95313,-0.63681 1.93518,-1.2254 2.94611,-1.76578 1.01093,-0.54034 2.0459,-1.02984 3.10492,-1.46853 1.05908,-0.43866 2.13708,-0.82438 3.23407,-1.15711 1.09692,-0.33276 2.20752,-0.61096 3.33173,-0.83459 1.12432,-0.22361 2.25683,-0.39161 3.39764,-0.50397 1.14081,-0.11234 2.28436,-0.16852 3.4306,-0.16855 1.1463,3e-5 2.28986,0.0562 3.43061,0.16855 1.1408,0.11236 2.27331,0.28036 3.39752,0.50397 1.12427,0.22363 2.23486,0.50183 3.33185,0.83459 1.09686,0.33273 2.17486,0.71845 3.23388,1.15711 1.05908,0.43869 2.09412,0.92819 3.10511,1.46856 1.01086,0.54035 1.99285,1.12894 2.94592,1.76575 0.95312,0.63687 1.87274,1.31888 2.75885,2.04608 0.88611,0.7272 1.73443,1.49609 2.54498,2.30664 0.81061,0.81058 1.57947,1.65891 2.30664,2.54501 0.72717,0.88608 1.40918,1.80567 2.04596,2.75876 0.6369,0.9531 1.22553,1.93512 1.76587,2.94608 0.54034,1.01092 1.02985,2.0459 1.46851,3.10495 0.43866,1.05905 0.8244,2.13705 1.15716,3.23395 0.33277,1.09695 0.61096,2.20758 0.83454,3.33181 0.22369,1.12427 0.39172,2.25681 0.50408,3.39759 0.11237,1.14077 0.16852,2.2843 0.16852,3.4306 z"
       style="fill:#ff6666;fill-opacity:1;fill-rule:nonzero;stroke:#000000;stroke-width:1;stroke-linecap:butt;stroke-linejoin:miter;stroke-miterlimit:10;stroke-dasharray:none;stroke-opacity:1"
       transform="matrix(1.0003115,0,0,1.0003115,-32.424608,-169.05265)"
       clip-path="url(#clipPath62)" />
    <path
       id="path63"
       d="M 2.4365502,-10.592308 H 7.4037527 L 6.6071259,-8.5773109 H 2.4365502 L 2.0460469,-7.530762 c 1.7885053,0.074196 3.1708871,0.5232745 4.1393354,1.3433315 0.8005318,0.6872859 1.2027503,1.5385832 1.2027503,2.5460818 0,0.6560456 -0.1874416,1.2964711 -0.5623248,1.9212765 -0.3670732,0.6169952 -0.8864426,1.09340931 -1.5620134,1.43705225 -0.6677607,0.33192784 -1.401907,0.49984428 -2.2024389,0.49984428 -0.8669174,0 -1.5307731,-0.1640114 -1.9993771,-0.48422414 -0.32411774,-0.22649194 -0.48422411,-0.48812918 -0.48422411,-0.78100669 0,-0.2264919 0.0820057,-0.4256486 0.24992214,-0.5935651 0.17572647,-0.1757265 0.37488317,-0.2655422 0.59356507,-0.2655422 0.2069668,0 0.4139336,0.042955 0.6248054,0.124961 0.2069667,0.085911 0.5623248,0.3045926 1.062169,0.6560456 0.3202128,0.21868191 0.5974702,0.37097821 0.8278671,0.45298391 0.1562014,0.0624805 0.3358329,0.0937208 0.5467047,0.0937208 0.4256486,0 0.7849117,-0.15620133 1.0777892,-0.46860401 0.3006876,-0.3124027 0.4529839,-0.6872859 0.4529839,-1.1246496 0,-0.9137778 -0.4607939,-1.6596392 -1.3745718,-2.2336791 -0.9176828,-0.5701349 -2.0735727,-0.8591074 -3.4676696,-0.8591074 -0.1366762,0 -0.34364297,0.00781 -0.62480538,0.01562 z m 0,0"
       style="fill:#000000;fill-opacity:1;fill-rule:nonzero;stroke:none"
       aria-label="5"
       transform="matrix(1.0003115,0,0,1.0003115,666.79316,181.55655)"
       clip-path="url(#clipPath64)" />
    <path
       id="path65"
       d="M 745.64001,452.42001 718.54999,383.5"
       style="fill:none;stroke:#000000;stroke-width:1;stroke-linecap:butt;stroke-linejoin:miter;stroke-miterlimit:10;stroke-dasharray:none;stroke-opacity:1"
       transform="matrix(1.0003115,0,0,1.0003115,-32.424608,-169.05265)"
       clip-path="url(#clipPath66)" />
    <path
       id="path67"
       d="m 716.63,378.62 5.82001,5.23001 -3.90002,-0.35001 -2.60999,2.91 z"
       style="fill:#000000;fill-opacity:1;fill-rule:nonzero;stroke:#000000;stroke-width:1;stroke-linecap:butt;stroke-linejoin:miter;stroke-miterlimit:10;stroke-dasharray:none;stroke-opacity:1"
       transform="matrix(1.0003115,0,0,1.0003115,-32.424608,-169.05265)"
       clip-path="url(#clipPath68)" />
    <path
       id="path69"
       d="m 690.38,312.51999 -28.11999,-69.12"
       style="fill:none;stroke:#000000;stroke-width:1;stroke-linecap:butt;stroke-linejoin:miter;stroke-miterlimit:10;stroke-dasharray:none;stroke-opacity:1"
       transform="matrix(1.0003115,0,0,1.0003115,-32.424608,-169.05265)"
       clip-path="url(#clipPath70)" />
    <path
       id="path71"
       d="m 660.28003,238.53 5.87994,5.17 -3.89996,-0.30001 -2.58002,2.94001 z"
       style="fill:#000000;fill-opacity:1;fill-rule:nonzero;stroke:#000000;stroke-width:1;stroke-linecap:butt;stroke-linejoin:miter;stroke-miterlimit:10;stroke-dasharray:none;stroke-opacity:1"
       transform="matrix(1.0003115,0,0,1.0003115,-32.424608,-169.05265)"
       clip-path="url(#clipPath72)" />
    <path
       id="path73"
       d="M 354,344.57999 H 467.63"
       style="fill:none;stroke:#000000;stroke-width:1;stroke-linecap:butt;stroke-linejoin:miter;stroke-miterlimit:10;stroke-dasharray:none;stroke-opacity:1"
       transform="matrix(1.0003115,0,0,1.0003115,-32.424608,-169.05265)"
       clip-path="url(#clipPath74)" />
    <path
       id="path75"
       d="m 472.88,344.57999 -7,3.5 1.75,-3.5 -1.75,-3.5 z"
       style="fill:#000000;fill-opacity:1;fill-rule:nonzero;stroke:#000000;stroke-width:1;stroke-linecap:butt;stroke-linejoin:miter;stroke-miterlimit:10;stroke-dasharray:none;stroke-opacity:1"
       transform="matrix(1.0003115,0,0,1.0003115,-32.424608,-169.05265)"
       clip-path="url(#clipPath76)" />
    <path
       id="path77"
       d="M 7.3270949,-3.545304 H 3.2189997 l -0.7185261,1.6713543 c -0.1796316,0.4061235 -0.2655423,0.7146211 -0.2655423,0.92158788 0,0.15620133 0.078101,0.29678254 0.234302,0.42174361 0.1562013,0.12496107 0.4881292,0.20306173 0.9996886,0.234302 V 4.6633198e-4 H 0.12621325 V -0.29631621 C 0.57138706,-0.36660681 0.86035953,-0.46813768 0.9853206,-0.59309875 1.2547679,-0.84302089 1.5515504,-1.3506752 1.8756682,-2.1238718 L 5.59326,-10.839906 h 0.2811624 l 3.6863516,8.809755 c 0.2889725,0.710716 0.554515,1.17150998 0.796627,1.39019185 0.249922,0.21087181 0.585755,0.32411778 1.015308,0.34364294 V 4.6633198e-4 H 7.2021338 V -0.29631621 c 0.4139335,-0.0195252 0.6950959,-0.0859107 0.8434872,-0.20306174 0.1562014,-0.12496106 0.234302,-0.2694473 0.234302,-0.43736374 0,-0.22649191 -0.1054359,-0.59356511 -0.3124027,-1.09340931 z M 7.108413,-4.123249 5.3120976,-8.4031656 3.4689219,-4.123249 Z m 10.008601,3.31146838 c -0.355358,0.36707314 -0.699001,0.63261541 -1.030929,0.79662682 -0.335833,0.15620133 -0.695096,0.234302 -1.077789,0.234302 -0.781007,0 -1.464388,-0.3280228 -2.046238,-0.98406842 -0.585755,-0.65604558 -0.874727,-1.49172278 -0.874727,-2.51484148 0,-1.0309289 0.320212,-1.9681369 0.968448,-2.8116241 0.64433,-0.8512973 1.476103,-1.280851 2.499221,-1.280851 0.624806,0 1.144175,0.1991567 1.562014,0.5935651 v -1.3120912 c 0,-0.820057 -0.02343,-1.3277114 -0.06248,-1.515153 -0.04295,-0.1874416 -0.105436,-0.3124026 -0.187441,-0.3748832 -0.08591,-0.070291 -0.187442,-0.1093409 -0.312403,-0.1093409 -0.136676,0 -0.312403,0.04295 -0.531085,0.1249611 l -0.109341,-0.2655421 2.139959,-0.874728 h 0.343643 v 8.263051 c 0,0.8434872 0.01953,1.3589516 0.06248,1.5463932 0.03905,0.1796316 0.101531,0.30459264 0.187442,0.37488325 0.082,0.0741956 0.179631,0.10934093 0.296782,0.10934093 0.144487,0 0.331928,-0.0390503 0.562325,-0.12496107 l 0.09372,0.26554227 -2.124338,0.89034762 h -0.359263 z m 0,-0.54670468 v -3.6863515 c -0.03124,-0.3514531 -0.124961,-0.6755708 -0.281163,-0.9684483 -0.156201,-0.2889725 -0.367073,-0.5076544 -0.624805,-0.6560456 -0.261637,-0.1444863 -0.511559,-0.2186819 -0.749767,-0.2186819 -0.460793,0 -0.870822,0.2030617 -1.23399,0.6091852 -0.468604,0.5427996 -0.702906,1.3355214 -0.702906,2.3742603 0,1.054359 0.226492,1.8587959 0.687286,2.4211207 0.456889,0.56232485 0.968448,0.84348725 1.530773,0.84348725 0.468604,0 0.925493,-0.23820704 1.374572,-0.71852615 z m 7.997508,0.54670468 c -0.355358,0.36707314 -0.699001,0.63261541 -1.030929,0.79662682 -0.335833,0.15620133 -0.695096,0.234302 -1.077789,0.234302 -0.781007,0 -1.464387,-0.3280228 -2.046237,-0.98406842 -0.585755,-0.65604558 -0.874728,-1.49172278 -0.874728,-2.51484148 0,-1.0309289 0.320213,-1.9681369 0.968448,-2.8116241 0.644331,-0.8512973 1.476103,-1.280851 2.499222,-1.280851 0.624805,0 1.144175,0.1991567 1.562013,0.5935651 v -1.3120912 c 0,-0.820057 -0.02343,-1.3277114 -0.06248,-1.515153 -0.04296,-0.1874416 -0.105436,-0.3124026 -0.187442,-0.3748832 -0.08591,-0.070291 -0.187442,-0.1093409 -0.312403,-0.1093409 -0.136676,0 -0.312402,0.04295 -0.531084,0.1249611 l -0.109341,-0.2655421 2.139958,-0.874728 h 0.343643 v 8.263051 c 0,0.8434872 0.01953,1.3589516 0.06248,1.5463932 0.03905,0.1796316 0.10153,0.30459264 0.187441,0.37488325 0.08201,0.0741956 0.179632,0.10934093 0.296783,0.10934093 0.144486,0 0.331928,-0.0390503 0.562325,-0.12496107 l 0.09372,0.26554227 -2.124338,0.89034762 h -0.359263 z m 0,-0.54670468 v -3.6863515 c -0.03124,-0.3514531 -0.124961,-0.6755708 -0.281162,-0.9684483 -0.156202,-0.2889725 -0.367073,-0.5076544 -0.624806,-0.6560456 -0.261637,-0.1444863 -0.511559,-0.2186819 -0.749766,-0.2186819 -0.460794,0 -0.870823,0.2030617 -1.233991,0.6091852 -0.468604,0.5427996 -0.702906,1.3355214 -0.702906,2.3742603 0,1.054359 0.226492,1.8587959 0.687286,2.4211207 0.456889,0.56232485 0.968449,0.84348725 1.530773,0.84348725 0.468604,0 0.925493,-0.23820704 1.374572,-0.71852615 z m 6.220718,-9.2314987 h 2.889725 l 6.466735,7.9350276 v -6.1074723 c 0,-0.6443305 -0.07419,-1.0504539 -0.218681,-1.2183704 -0.187442,-0.2186819 -0.492035,-0.3280229 -0.905968,-0.3280229 h -0.374883 v -0.281162 h 3.686351 v 0.281162 h -0.374883 c -0.449079,0 -0.765387,0.136676 -0.952828,0.4061236 -0.117151,0.1679164 -0.171822,0.5467047 -0.171822,1.1402697 v 8.9347165 h -0.281162 l -6.9822,-8.528593 v 6.5135958 c 0,0.6560456 0.07029,1.06216905 0.218682,1.21837039 0.195252,0.21868187 0.499844,0.3280228 0.905968,0.3280228 h 0.374883 V 4.6633198e-4 H 31.928805 V -0.29631621 h 0.374884 c 0.445173,0 0.765386,-0.13277113 0.952828,-0.40612347 0.113246,-0.16401141 0.171821,-0.54670472 0.171821,-1.14026972 v -7.357083 C 33.123746,-9.5629605 32.889444,-9.8011675 32.725432,-9.9183185 32.569231,-10.031565 32.338834,-10.137 32.038146,-10.230721 c -0.156201,-0.05077 -0.390503,-0.0781 -0.702906,-0.0781 z m 15.77243,3.2177472 c 1.081695,0 1.952517,0.4139336 2.608563,1.2339906 0.562324,0.7107161 0.843487,1.515153 0.843487,2.4211207 0,0.6482356 -0.156202,1.2964711 -0.468604,1.9525167 -0.304593,0.6560456 -0.726336,1.15198489 -1.265231,1.48391273 -0.5428,0.33192784 -1.14027,0.49984427 -1.796315,0.49984427 -1.0856,0 -1.944707,-0.42955367 -2.577322,-1.2964711 -0.531085,-0.7185261 -0.796627,-1.5307731 -0.796627,-2.4367408 0,-0.6560457 0.160106,-1.3042812 0.484224,-1.9525168 0.320213,-0.6443305 0.749766,-1.1246496 1.280851,-1.4370522 0.531084,-0.3124027 1.093409,-0.4686041 1.686974,-0.4686041 z m -0.234302,0.5154645 c -0.281162,0 -0.562325,0.085911 -0.843487,0.2499221 -0.273352,0.1562013 -0.495939,0.4451738 -0.671666,0.8591073 -0.167916,0.4061235 -0.249922,0.933303 -0.249922,1.5776335 0,1.042644 0.203062,1.9447067 0.609185,2.7022832 0.413934,0.74976638 0.960639,1.12464959 1.640114,1.12464959 0.507655,0 0.925493,-0.20696677 1.249611,-0.62480535 0.331928,-0.41393354 0.499844,-1.12855464 0.499844,-2.13995834 0,-1.2691358 -0.277257,-2.2688244 -0.827867,-2.9990656 -0.367073,-0.4998443 -0.835677,-0.7497664 -1.405812,-0.7497664 z m 9.797729,6.04499168 c -0.355358,0.36707314 -0.699001,0.63261541 -1.030929,0.79662682 -0.335833,0.15620133 -0.695096,0.234302 -1.077789,0.234302 -0.781007,0 -1.464387,-0.3280228 -2.046237,-0.98406842 -0.585755,-0.65604558 -0.874728,-1.49172278 -0.874728,-2.51484148 0,-1.0309289 0.320213,-1.9681369 0.968448,-2.8116241 0.644331,-0.8512973 1.476103,-1.280851 2.499222,-1.280851 0.624805,0 1.144175,0.1991567 1.562013,0.5935651 v -1.3120912 c 0,-0.820057 -0.02343,-1.3277114 -0.06248,-1.515153 -0.04296,-0.1874416 -0.105436,-0.3124026 -0.187442,-0.3748832 -0.08591,-0.070291 -0.187442,-0.1093409 -0.312403,-0.1093409 -0.136676,0 -0.312402,0.04295 -0.531084,0.1249611 l -0.109341,-0.2655421 2.139958,-0.874728 h 0.343643 v 8.263051 c 0,0.8434872 0.01953,1.3589516 0.06248,1.5463932 0.03905,0.1796316 0.10153,0.30459264 0.187441,0.37488325 0.08201,0.0741956 0.179632,0.10934093 0.296783,0.10934093 0.144486,0 0.331928,-0.0390503 0.562325,-0.12496107 l 0.09372,0.26554227 -2.124338,0.89034762 h -0.359263 z m 0,-0.54670468 v -3.6863515 c -0.03124,-0.3514531 -0.124961,-0.6755708 -0.281162,-0.9684483 -0.156202,-0.2889725 -0.367073,-0.5076544 -0.624806,-0.6560456 -0.261637,-0.1444863 -0.511559,-0.2186819 -0.749766,-0.2186819 -0.460794,0 -0.870822,0.2030617 -1.233991,0.6091852 -0.468604,0.5427996 -0.702906,1.3355214 -0.702906,2.3742603 0,1.054359 0.226492,1.8587959 0.687286,2.4211207 0.456889,0.56232485 0.968449,0.84348725 1.530773,0.84348725 0.468604,0 0.925493,-0.23820704 1.374572,-0.71852615 z m 4.139336,-3.1084066 c 0,1.0621691 0.257732,1.8978462 0.781006,2.4992214 0.51937,0.6052802 1.128555,0.9059677 1.827556,0.9059677 0.468604,0 0.874727,-0.124961 1.21837,-0.3748832 0.351453,-0.2577322 0.644331,-0.702906 0.874728,-1.3277113 l 0.249922,0.1562013 c -0.117151,0.7107161 -0.437364,1.3589516 -0.968448,1.95251672 -0.523275,0.58575501 -1.17932,0.87472748 -1.968137,0.87472748 -0.855203,0 -1.589349,-0.33192784 -2.202439,-0.99968855 -0.616995,-0.67557075 -0.921588,-1.57763355 -0.921588,-2.70228315 0,-1.2261805 0.312403,-2.1790086 0.937208,-2.8584844 0.632615,-0.6872859 1.425337,-1.0309289 2.37426,-1.0309289 0.800532,0 1.456578,0.2655423 1.968137,0.7966269 0.51937,0.5232744 0.781007,1.2261805 0.781007,2.108718 z m 0,-0.4529839 h 3.311468 c -0.02343,-0.4568889 -0.0742,-0.7810067 -0.156201,-0.9684483 -0.136677,-0.2889724 -0.335833,-0.5193694 -0.593566,-0.6872858 -0.249922,-0.1640114 -0.515464,-0.2499222 -0.796626,-0.2499222 -0.437364,0 -0.827867,0.1718215 -1.17151,0.5154644 -0.335833,0.3358329 -0.531085,0.7966268 -0.593565,1.3901919 z m 0,0"
       style="fill:#000000;fill-opacity:1;fill-rule:nonzero;stroke:none"
       aria-label="Add Node"
       transform="matrix(1.0003115,0,0,1.0003115,348.58468,161.55031)"
       clip-path="url(#clipPath78)" />
  </g>
</svg>
