<?xml version="1.0" encoding="utf-8" standalone="no"?>
<!DOCTYPE svg PUBLIC "-//W3C//DTD SVG 1.1//EN"
  "http://www.w3.org/Graphics/SVG/1.1/DTD/svg11.dtd">
<svg xmlns:xlink="http://www.w3.org/1999/xlink" width="460.8pt" height="345.6pt" viewBox="0 0 460.8 345.6" xmlns="http://www.w3.org/2000/svg" version="1.1">
 <metadata>
  <rdf:RDF xmlns:dc="http://purl.org/dc/elements/1.1/" xmlns:cc="http://creativecommons.org/ns#" xmlns:rdf="http://www.w3.org/1999/02/22-rdf-syntax-ns#">
   <cc:Work>
    <dc:type rdf:resource="http://purl.org/dc/dcmitype/StillImage"/>
    <dc:date>2024-05-25T18:35:01.804729</dc:date>
    <dc:format>image/svg+xml</dc:format>
    <dc:creator>
     <cc:Agent>
      <dc:title>Matplotlib v3.8.3, https://matplotlib.org/</dc:title>
     </cc:Agent>
    </dc:creator>
   </cc:Work>
  </rdf:RDF>
 </metadata>
 <defs>
  <style type="text/css">*{stroke-linejoin: round; stroke-linecap: butt}</style>
 </defs>
 <g id="figure_1">
  <g id="patch_1">
   <path d="M 0 345.6 
L 460.8 345.6 
L 460.8 0 
L 0 0 
z
" style="fill: #ffffff"/>
  </g>
  <g id="axes_1">
   <g id="patch_2">
    <path d="M 57.6 307.584 
L 414.72 307.584 
L 414.72 41.472 
L 57.6 41.472 
z
" style="fill: #ffffff"/>
   </g>
   <g id="matplotlib.axis_1">
    <g id="xtick_1">
     <g id="line2d_1">
      <path d="M 73.981651 307.584 
L 73.981651 41.472 
" clip-path="url(#p9b5a0e0f3c)" style="fill: none; stroke: #b0b0b0; stroke-width: 0.8; stroke-linecap: square"/>
     </g>
     <g id="line2d_2">
      <defs>
       <path id="m489ef07f42" d="M 0 0 
L 0 3.5 
" style="stroke: #000000; stroke-width: 0.8"/>
      </defs>
      <g>
       <use xlink:href="#m489ef07f42" x="73.981651" y="307.584" style="stroke: #000000; stroke-width: 0.8"/>
      </g>
     </g>
     <g id="text_1">
      <!-- 0 -->
      <g transform="translate(70.800401 322.182437) scale(0.1 -0.1)">
       <defs>
        <path id="DejaVuSans-30" d="M 2034 4250 
Q 1547 4250 1301 3770 
Q 1056 3291 1056 2328 
Q 1056 1369 1301 889 
Q 1547 409 2034 409 
Q 2525 409 2770 889 
Q 3016 1369 3016 2328 
Q 3016 3291 2770 3770 
Q 2525 4250 2034 4250 
z
M 2034 4750 
Q 2819 4750 3233 4129 
Q 3647 3509 3647 2328 
Q 3647 1150 3233 529 
Q 2819 -91 2034 -91 
Q 1250 -91 836 529 
Q 422 1150 422 2328 
Q 422 3509 836 4129 
Q 1250 4750 2034 4750 
z
" transform="scale(0.015625)"/>
       </defs>
       <use xlink:href="#DejaVuSans-30"/>
      </g>
     </g>
    </g>
    <g id="xtick_2">
     <g id="line2d_3">
      <path d="M 139.508257 307.584 
L 139.508257 41.472 
" clip-path="url(#p9b5a0e0f3c)" style="fill: none; stroke: #b0b0b0; stroke-width: 0.8; stroke-linecap: square"/>
     </g>
     <g id="line2d_4">
      <g>
       <use xlink:href="#m489ef07f42" x="139.508257" y="307.584" style="stroke: #000000; stroke-width: 0.8"/>
      </g>
     </g>
     <g id="text_2">
      <!-- 20 -->
      <g transform="translate(133.145757 322.182437) scale(0.1 -0.1)">
       <defs>
        <path id="DejaVuSans-32" d="M 1228 531 
L 3431 531 
L 3431 0 
L 469 0 
L 469 531 
Q 828 903 1448 1529 
Q 2069 2156 2228 2338 
Q 2531 2678 2651 2914 
Q 2772 3150 2772 3378 
Q 2772 3750 2511 3984 
Q 2250 4219 1831 4219 
Q 1534 4219 1204 4116 
Q 875 4013 500 3803 
L 500 4441 
Q 881 4594 1212 4672 
Q 1544 4750 1819 4750 
Q 2544 4750 2975 4387 
Q 3406 4025 3406 3419 
Q 3406 3131 3298 2873 
Q 3191 2616 2906 2266 
Q 2828 2175 2409 1742 
Q 1991 1309 1228 531 
z
" transform="scale(0.015625)"/>
       </defs>
       <use xlink:href="#DejaVuSans-32"/>
       <use xlink:href="#DejaVuSans-30" x="63.623047"/>
      </g>
     </g>
    </g>
    <g id="xtick_3">
     <g id="line2d_5">
      <path d="M 205.034862 307.584 
L 205.034862 41.472 
" clip-path="url(#p9b5a0e0f3c)" style="fill: none; stroke: #b0b0b0; stroke-width: 0.8; stroke-linecap: square"/>
     </g>
     <g id="line2d_6">
      <g>
       <use xlink:href="#m489ef07f42" x="205.034862" y="307.584" style="stroke: #000000; stroke-width: 0.8"/>
      </g>
     </g>
     <g id="text_3">
      <!-- 40 -->
      <g transform="translate(198.672362 322.182437) scale(0.1 -0.1)">
       <defs>
        <path id="DejaVuSans-34" d="M 2419 4116 
L 825 1625 
L 2419 1625 
L 2419 4116 
z
M 2253 4666 
L 3047 4666 
L 3047 1625 
L 3713 1625 
L 3713 1100 
L 3047 1100 
L 3047 0 
L 2419 0 
L 2419 1100 
L 313 1100 
L 313 1709 
L 2253 4666 
z
" transform="scale(0.015625)"/>
       </defs>
       <use xlink:href="#DejaVuSans-34"/>
       <use xlink:href="#DejaVuSans-30" x="63.623047"/>
      </g>
     </g>
    </g>
    <g id="xtick_4">
     <g id="line2d_7">
      <path d="M 270.561468 307.584 
L 270.561468 41.472 
" clip-path="url(#p9b5a0e0f3c)" style="fill: none; stroke: #b0b0b0; stroke-width: 0.8; stroke-linecap: square"/>
     </g>
     <g id="line2d_8">
      <g>
       <use xlink:href="#m489ef07f42" x="270.561468" y="307.584" style="stroke: #000000; stroke-width: 0.8"/>
      </g>
     </g>
     <g id="text_4">
      <!-- 60 -->
      <g transform="translate(264.198968 322.182437) scale(0.1 -0.1)">
       <defs>
        <path id="DejaVuSans-36" d="M 2113 2584 
Q 1688 2584 1439 2293 
Q 1191 2003 1191 1497 
Q 1191 994 1439 701 
Q 1688 409 2113 409 
Q 2538 409 2786 701 
Q 3034 994 3034 1497 
Q 3034 2003 2786 2293 
Q 2538 2584 2113 2584 
z
M 3366 4563 
L 3366 3988 
Q 3128 4100 2886 4159 
Q 2644 4219 2406 4219 
Q 1781 4219 1451 3797 
Q 1122 3375 1075 2522 
Q 1259 2794 1537 2939 
Q 1816 3084 2150 3084 
Q 2853 3084 3261 2657 
Q 3669 2231 3669 1497 
Q 3669 778 3244 343 
Q 2819 -91 2113 -91 
Q 1303 -91 875 529 
Q 447 1150 447 2328 
Q 447 3434 972 4092 
Q 1497 4750 2381 4750 
Q 2619 4750 2861 4703 
Q 3103 4656 3366 4563 
z
" transform="scale(0.015625)"/>
       </defs>
       <use xlink:href="#DejaVuSans-36"/>
       <use xlink:href="#DejaVuSans-30" x="63.623047"/>
      </g>
     </g>
    </g>
    <g id="xtick_5">
     <g id="line2d_9">
      <path d="M 336.088073 307.584 
L 336.088073 41.472 
" clip-path="url(#p9b5a0e0f3c)" style="fill: none; stroke: #b0b0b0; stroke-width: 0.8; stroke-linecap: square"/>
     </g>
     <g id="line2d_10">
      <g>
       <use xlink:href="#m489ef07f42" x="336.088073" y="307.584" style="stroke: #000000; stroke-width: 0.8"/>
      </g>
     </g>
     <g id="text_5">
      <!-- 80 -->
      <g transform="translate(329.725573 322.182437) scale(0.1 -0.1)">
       <defs>
        <path id="DejaVuSans-38" d="M 2034 2216 
Q 1584 2216 1326 1975 
Q 1069 1734 1069 1313 
Q 1069 891 1326 650 
Q 1584 409 2034 409 
Q 2484 409 2743 651 
Q 3003 894 3003 1313 
Q 3003 1734 2745 1975 
Q 2488 2216 2034 2216 
z
M 1403 2484 
Q 997 2584 770 2862 
Q 544 3141 544 3541 
Q 544 4100 942 4425 
Q 1341 4750 2034 4750 
Q 2731 4750 3128 4425 
Q 3525 4100 3525 3541 
Q 3525 3141 3298 2862 
Q 3072 2584 2669 2484 
Q 3125 2378 3379 2068 
Q 3634 1759 3634 1313 
Q 3634 634 3220 271 
Q 2806 -91 2034 -91 
Q 1263 -91 848 271 
Q 434 634 434 1313 
Q 434 1759 690 2068 
Q 947 2378 1403 2484 
z
M 1172 3481 
Q 1172 3119 1398 2916 
Q 1625 2713 2034 2713 
Q 2441 2713 2670 2916 
Q 2900 3119 2900 3481 
Q 2900 3844 2670 4047 
Q 2441 4250 2034 4250 
Q 1625 4250 1398 4047 
Q 1172 3844 1172 3481 
z
" transform="scale(0.015625)"/>
       </defs>
       <use xlink:href="#DejaVuSans-38"/>
       <use xlink:href="#DejaVuSans-30" x="63.623047"/>
      </g>
     </g>
    </g>
    <g id="xtick_6">
     <g id="line2d_11">
      <path d="M 401.614679 307.584 
L 401.614679 41.472 
" clip-path="url(#p9b5a0e0f3c)" style="fill: none; stroke: #b0b0b0; stroke-width: 0.8; stroke-linecap: square"/>
     </g>
     <g id="line2d_12">
      <g>
       <use xlink:href="#m489ef07f42" x="401.614679" y="307.584" style="stroke: #000000; stroke-width: 0.8"/>
      </g>
     </g>
     <g id="text_6">
      <!-- 100 -->
      <g transform="translate(392.070929 322.182437) scale(0.1 -0.1)">
       <defs>
        <path id="DejaVuSans-31" d="M 794 531 
L 1825 531 
L 1825 4091 
L 703 3866 
L 703 4441 
L 1819 4666 
L 2450 4666 
L 2450 531 
L 3481 531 
L 3481 0 
L 794 0 
L 794 531 
z
" transform="scale(0.015625)"/>
       </defs>
       <use xlink:href="#DejaVuSans-31"/>
       <use xlink:href="#DejaVuSans-30" x="63.623047"/>
       <use xlink:href="#DejaVuSans-30" x="127.246094"/>
      </g>
     </g>
    </g>
    <g id="text_7">
     <!-- Generation -->
     <g transform="translate(208.267031 335.860562) scale(0.1 -0.1)">
      <defs>
       <path id="DejaVuSans-47" d="M 3809 666 
L 3809 1919 
L 2778 1919 
L 2778 2438 
L 4434 2438 
L 4434 434 
Q 4069 175 3628 42 
Q 3188 -91 2688 -91 
Q 1594 -91 976 548 
Q 359 1188 359 2328 
Q 359 3472 976 4111 
Q 1594 4750 2688 4750 
Q 3144 4750 3555 4637 
Q 3966 4525 4313 4306 
L 4313 3634 
Q 3963 3931 3569 4081 
Q 3175 4231 2741 4231 
Q 1884 4231 1454 3753 
Q 1025 3275 1025 2328 
Q 1025 1384 1454 906 
Q 1884 428 2741 428 
Q 3075 428 3337 486 
Q 3600 544 3809 666 
z
" transform="scale(0.015625)"/>
       <path id="DejaVuSans-65" d="M 3597 1894 
L 3597 1613 
L 953 1613 
Q 991 1019 1311 708 
Q 1631 397 2203 397 
Q 2534 397 2845 478 
Q 3156 559 3463 722 
L 3463 178 
Q 3153 47 2828 -22 
Q 2503 -91 2169 -91 
Q 1331 -91 842 396 
Q 353 884 353 1716 
Q 353 2575 817 3079 
Q 1281 3584 2069 3584 
Q 2775 3584 3186 3129 
Q 3597 2675 3597 1894 
z
M 3022 2063 
Q 3016 2534 2758 2815 
Q 2500 3097 2075 3097 
Q 1594 3097 1305 2825 
Q 1016 2553 972 2059 
L 3022 2063 
z
" transform="scale(0.015625)"/>
       <path id="DejaVuSans-6e" d="M 3513 2113 
L 3513 0 
L 2938 0 
L 2938 2094 
Q 2938 2591 2744 2837 
Q 2550 3084 2163 3084 
Q 1697 3084 1428 2787 
Q 1159 2491 1159 1978 
L 1159 0 
L 581 0 
L 581 3500 
L 1159 3500 
L 1159 2956 
Q 1366 3272 1645 3428 
Q 1925 3584 2291 3584 
Q 2894 3584 3203 3211 
Q 3513 2838 3513 2113 
z
" transform="scale(0.015625)"/>
       <path id="DejaVuSans-72" d="M 2631 2963 
Q 2534 3019 2420 3045 
Q 2306 3072 2169 3072 
Q 1681 3072 1420 2755 
Q 1159 2438 1159 1844 
L 1159 0 
L 581 0 
L 581 3500 
L 1159 3500 
L 1159 2956 
Q 1341 3275 1631 3429 
Q 1922 3584 2338 3584 
Q 2397 3584 2469 3576 
Q 2541 3569 2628 3553 
L 2631 2963 
z
" transform="scale(0.015625)"/>
       <path id="DejaVuSans-61" d="M 2194 1759 
Q 1497 1759 1228 1600 
Q 959 1441 959 1056 
Q 959 750 1161 570 
Q 1363 391 1709 391 
Q 2188 391 2477 730 
Q 2766 1069 2766 1631 
L 2766 1759 
L 2194 1759 
z
M 3341 1997 
L 3341 0 
L 2766 0 
L 2766 531 
Q 2569 213 2275 61 
Q 1981 -91 1556 -91 
Q 1019 -91 701 211 
Q 384 513 384 1019 
Q 384 1609 779 1909 
Q 1175 2209 1959 2209 
L 2766 2209 
L 2766 2266 
Q 2766 2663 2505 2880 
Q 2244 3097 1772 3097 
Q 1472 3097 1187 3025 
Q 903 2953 641 2809 
L 641 3341 
Q 956 3463 1253 3523 
Q 1550 3584 1831 3584 
Q 2591 3584 2966 3190 
Q 3341 2797 3341 1997 
z
" transform="scale(0.015625)"/>
       <path id="DejaVuSans-74" d="M 1172 4494 
L 1172 3500 
L 2356 3500 
L 2356 3053 
L 1172 3053 
L 1172 1153 
Q 1172 725 1289 603 
Q 1406 481 1766 481 
L 2356 481 
L 2356 0 
L 1766 0 
Q 1100 0 847 248 
Q 594 497 594 1153 
L 594 3053 
L 172 3053 
L 172 3500 
L 594 3500 
L 594 4494 
L 1172 4494 
z
" transform="scale(0.015625)"/>
       <path id="DejaVuSans-69" d="M 603 3500 
L 1178 3500 
L 1178 0 
L 603 0 
L 603 3500 
z
M 603 4863 
L 1178 4863 
L 1178 4134 
L 603 4134 
L 603 4863 
z
" transform="scale(0.015625)"/>
       <path id="DejaVuSans-6f" d="M 1959 3097 
Q 1497 3097 1228 2736 
Q 959 2375 959 1747 
Q 959 1119 1226 758 
Q 1494 397 1959 397 
Q 2419 397 2687 759 
Q 2956 1122 2956 1747 
Q 2956 2369 2687 2733 
Q 2419 3097 1959 3097 
z
M 1959 3584 
Q 2709 3584 3137 3096 
Q 3566 2609 3566 1747 
Q 3566 888 3137 398 
Q 2709 -91 1959 -91 
Q 1206 -91 779 398 
Q 353 888 353 1747 
Q 353 2609 779 3096 
Q 1206 3584 1959 3584 
z
" transform="scale(0.015625)"/>
      </defs>
      <use xlink:href="#DejaVuSans-47"/>
      <use xlink:href="#DejaVuSans-65" x="77.490234"/>
      <use xlink:href="#DejaVuSans-6e" x="139.013672"/>
      <use xlink:href="#DejaVuSans-65" x="202.392578"/>
      <use xlink:href="#DejaVuSans-72" x="263.916016"/>
      <use xlink:href="#DejaVuSans-61" x="305.029297"/>
      <use xlink:href="#DejaVuSans-74" x="366.308594"/>
      <use xlink:href="#DejaVuSans-69" x="405.517578"/>
      <use xlink:href="#DejaVuSans-6f" x="433.300781"/>
      <use xlink:href="#DejaVuSans-6e" x="494.482422"/>
     </g>
    </g>
   </g>
   <g id="matplotlib.axis_2">
    <g id="ytick_1">
     <g id="line2d_13">
      <path d="M 57.6 307.584 
L 414.72 307.584 
" clip-path="url(#p9b5a0e0f3c)" style="fill: none; stroke: #b0b0b0; stroke-width: 0.8; stroke-linecap: square"/>
     </g>
     <g id="line2d_14">
      <defs>
       <path id="m8c77212776" d="M 0 0 
L -3.5 0 
" style="stroke: #000000; stroke-width: 0.8"/>
      </defs>
      <g>
       <use xlink:href="#m8c77212776" x="57.6" y="307.584" style="stroke: #000000; stroke-width: 0.8"/>
      </g>
     </g>
     <g id="text_8">
      <!-- 0.0 -->
      <g transform="translate(34.696875 311.383219) scale(0.1 -0.1)">
       <defs>
        <path id="DejaVuSans-2e" d="M 684 794 
L 1344 794 
L 1344 0 
L 684 0 
L 684 794 
z
" transform="scale(0.015625)"/>
       </defs>
       <use xlink:href="#DejaVuSans-30"/>
       <use xlink:href="#DejaVuSans-2e" x="63.623047"/>
       <use xlink:href="#DejaVuSans-30" x="95.410156"/>
      </g>
     </g>
    </g>
    <g id="ytick_2">
     <g id="line2d_15">
      <path d="M 57.6 265.344 
L 414.72 265.344 
" clip-path="url(#p9b5a0e0f3c)" style="fill: none; stroke: #b0b0b0; stroke-width: 0.8; stroke-linecap: square"/>
     </g>
     <g id="line2d_16">
      <g>
       <use xlink:href="#m8c77212776" x="57.6" y="265.344" style="stroke: #000000; stroke-width: 0.8"/>
      </g>
     </g>
     <g id="text_9">
      <!-- 0.1 -->
      <g transform="translate(34.696875 269.143219) scale(0.1 -0.1)">
       <use xlink:href="#DejaVuSans-30"/>
       <use xlink:href="#DejaVuSans-2e" x="63.623047"/>
       <use xlink:href="#DejaVuSans-31" x="95.410156"/>
      </g>
     </g>
    </g>
    <g id="ytick_3">
     <g id="line2d_17">
      <path d="M 57.6 223.104 
L 414.72 223.104 
" clip-path="url(#p9b5a0e0f3c)" style="fill: none; stroke: #b0b0b0; stroke-width: 0.8; stroke-linecap: square"/>
     </g>
     <g id="line2d_18">
      <g>
       <use xlink:href="#m8c77212776" x="57.6" y="223.104" style="stroke: #000000; stroke-width: 0.8"/>
      </g>
     </g>
     <g id="text_10">
      <!-- 0.2 -->
      <g transform="translate(34.696875 226.903219) scale(0.1 -0.1)">
       <use xlink:href="#DejaVuSans-30"/>
       <use xlink:href="#DejaVuSans-2e" x="63.623047"/>
       <use xlink:href="#DejaVuSans-32" x="95.410156"/>
      </g>
     </g>
    </g>
    <g id="ytick_4">
     <g id="line2d_19">
      <path d="M 57.6 180.864 
L 414.72 180.864 
" clip-path="url(#p9b5a0e0f3c)" style="fill: none; stroke: #b0b0b0; stroke-width: 0.8; stroke-linecap: square"/>
     </g>
     <g id="line2d_20">
      <g>
       <use xlink:href="#m8c77212776" x="57.6" y="180.864" style="stroke: #000000; stroke-width: 0.8"/>
      </g>
     </g>
     <g id="text_11">
      <!-- 0.3 -->
      <g transform="translate(34.696875 184.663219) scale(0.1 -0.1)">
       <defs>
        <path id="DejaVuSans-33" d="M 2597 2516 
Q 3050 2419 3304 2112 
Q 3559 1806 3559 1356 
Q 3559 666 3084 287 
Q 2609 -91 1734 -91 
Q 1441 -91 1130 -33 
Q 819 25 488 141 
L 488 750 
Q 750 597 1062 519 
Q 1375 441 1716 441 
Q 2309 441 2620 675 
Q 2931 909 2931 1356 
Q 2931 1769 2642 2001 
Q 2353 2234 1838 2234 
L 1294 2234 
L 1294 2753 
L 1863 2753 
Q 2328 2753 2575 2939 
Q 2822 3125 2822 3475 
Q 2822 3834 2567 4026 
Q 2313 4219 1838 4219 
Q 1578 4219 1281 4162 
Q 984 4106 628 3988 
L 628 4550 
Q 988 4650 1302 4700 
Q 1616 4750 1894 4750 
Q 2613 4750 3031 4423 
Q 3450 4097 3450 3541 
Q 3450 3153 3228 2886 
Q 3006 2619 2597 2516 
z
" transform="scale(0.015625)"/>
       </defs>
       <use xlink:href="#DejaVuSans-30"/>
       <use xlink:href="#DejaVuSans-2e" x="63.623047"/>
       <use xlink:href="#DejaVuSans-33" x="95.410156"/>
      </g>
     </g>
    </g>
    <g id="ytick_5">
     <g id="line2d_21">
      <path d="M 57.6 138.624 
L 414.72 138.624 
" clip-path="url(#p9b5a0e0f3c)" style="fill: none; stroke: #b0b0b0; stroke-width: 0.8; stroke-linecap: square"/>
     </g>
     <g id="line2d_22">
      <g>
       <use xlink:href="#m8c77212776" x="57.6" y="138.624" style="stroke: #000000; stroke-width: 0.8"/>
      </g>
     </g>
     <g id="text_12">
      <!-- 0.4 -->
      <g transform="translate(34.696875 142.423219) scale(0.1 -0.1)">
       <use xlink:href="#DejaVuSans-30"/>
       <use xlink:href="#DejaVuSans-2e" x="63.623047"/>
       <use xlink:href="#DejaVuSans-34" x="95.410156"/>
      </g>
     </g>
    </g>
    <g id="ytick_6">
     <g id="line2d_23">
      <path d="M 57.6 96.384 
L 414.72 96.384 
" clip-path="url(#p9b5a0e0f3c)" style="fill: none; stroke: #b0b0b0; stroke-width: 0.8; stroke-linecap: square"/>
     </g>
     <g id="line2d_24">
      <g>
       <use xlink:href="#m8c77212776" x="57.6" y="96.384" style="stroke: #000000; stroke-width: 0.8"/>
      </g>
     </g>
     <g id="text_13">
      <!-- 0.5 -->
      <g transform="translate(34.696875 100.183219) scale(0.1 -0.1)">
       <defs>
        <path id="DejaVuSans-35" d="M 691 4666 
L 3169 4666 
L 3169 4134 
L 1269 4134 
L 1269 2991 
Q 1406 3038 1543 3061 
Q 1681 3084 1819 3084 
Q 2600 3084 3056 2656 
Q 3513 2228 3513 1497 
Q 3513 744 3044 326 
Q 2575 -91 1722 -91 
Q 1428 -91 1123 -41 
Q 819 9 494 109 
L 494 744 
Q 775 591 1075 516 
Q 1375 441 1709 441 
Q 2250 441 2565 725 
Q 2881 1009 2881 1497 
Q 2881 1984 2565 2268 
Q 2250 2553 1709 2553 
Q 1456 2553 1204 2497 
Q 953 2441 691 2322 
L 691 4666 
z
" transform="scale(0.015625)"/>
       </defs>
       <use xlink:href="#DejaVuSans-30"/>
       <use xlink:href="#DejaVuSans-2e" x="63.623047"/>
       <use xlink:href="#DejaVuSans-35" x="95.410156"/>
      </g>
     </g>
    </g>
    <g id="ytick_7">
     <g id="line2d_25">
      <path d="M 57.6 54.144 
L 414.72 54.144 
" clip-path="url(#p9b5a0e0f3c)" style="fill: none; stroke: #b0b0b0; stroke-width: 0.8; stroke-linecap: square"/>
     </g>
     <g id="line2d_26">
      <g>
       <use xlink:href="#m8c77212776" x="57.6" y="54.144" style="stroke: #000000; stroke-width: 0.8"/>
      </g>
     </g>
     <g id="text_14">
      <!-- 0.6 -->
      <g transform="translate(34.696875 57.943219) scale(0.1 -0.1)">
       <use xlink:href="#DejaVuSans-30"/>
       <use xlink:href="#DejaVuSans-2e" x="63.623047"/>
       <use xlink:href="#DejaVuSans-36" x="95.410156"/>
      </g>
     </g>
    </g>
    <g id="text_15">
     <!-- Average Adjusted Species Fitness -->
     <g transform="translate(28.617187 258.270188) rotate(-90) scale(0.1 -0.1)">
      <defs>
       <path id="DejaVuSans-41" d="M 2188 4044 
L 1331 1722 
L 3047 1722 
L 2188 4044 
z
M 1831 4666 
L 2547 4666 
L 4325 0 
L 3669 0 
L 3244 1197 
L 1141 1197 
L 716 0 
L 50 0 
L 1831 4666 
z
" transform="scale(0.015625)"/>
       <path id="DejaVuSans-76" d="M 191 3500 
L 800 3500 
L 1894 563 
L 2988 3500 
L 3597 3500 
L 2284 0 
L 1503 0 
L 191 3500 
z
" transform="scale(0.015625)"/>
       <path id="DejaVuSans-67" d="M 2906 1791 
Q 2906 2416 2648 2759 
Q 2391 3103 1925 3103 
Q 1463 3103 1205 2759 
Q 947 2416 947 1791 
Q 947 1169 1205 825 
Q 1463 481 1925 481 
Q 2391 481 2648 825 
Q 2906 1169 2906 1791 
z
M 3481 434 
Q 3481 -459 3084 -895 
Q 2688 -1331 1869 -1331 
Q 1566 -1331 1297 -1286 
Q 1028 -1241 775 -1147 
L 775 -588 
Q 1028 -725 1275 -790 
Q 1522 -856 1778 -856 
Q 2344 -856 2625 -561 
Q 2906 -266 2906 331 
L 2906 616 
Q 2728 306 2450 153 
Q 2172 0 1784 0 
Q 1141 0 747 490 
Q 353 981 353 1791 
Q 353 2603 747 3093 
Q 1141 3584 1784 3584 
Q 2172 3584 2450 3431 
Q 2728 3278 2906 2969 
L 2906 3500 
L 3481 3500 
L 3481 434 
z
" transform="scale(0.015625)"/>
       <path id="DejaVuSans-20" transform="scale(0.015625)"/>
       <path id="DejaVuSans-64" d="M 2906 2969 
L 2906 4863 
L 3481 4863 
L 3481 0 
L 2906 0 
L 2906 525 
Q 2725 213 2448 61 
Q 2172 -91 1784 -91 
Q 1150 -91 751 415 
Q 353 922 353 1747 
Q 353 2572 751 3078 
Q 1150 3584 1784 3584 
Q 2172 3584 2448 3432 
Q 2725 3281 2906 2969 
z
M 947 1747 
Q 947 1113 1208 752 
Q 1469 391 1925 391 
Q 2381 391 2643 752 
Q 2906 1113 2906 1747 
Q 2906 2381 2643 2742 
Q 2381 3103 1925 3103 
Q 1469 3103 1208 2742 
Q 947 2381 947 1747 
z
" transform="scale(0.015625)"/>
       <path id="DejaVuSans-6a" d="M 603 3500 
L 1178 3500 
L 1178 -63 
Q 1178 -731 923 -1031 
Q 669 -1331 103 -1331 
L -116 -1331 
L -116 -844 
L 38 -844 
Q 366 -844 484 -692 
Q 603 -541 603 -63 
L 603 3500 
z
M 603 4863 
L 1178 4863 
L 1178 4134 
L 603 4134 
L 603 4863 
z
" transform="scale(0.015625)"/>
       <path id="DejaVuSans-75" d="M 544 1381 
L 544 3500 
L 1119 3500 
L 1119 1403 
Q 1119 906 1312 657 
Q 1506 409 1894 409 
Q 2359 409 2629 706 
Q 2900 1003 2900 1516 
L 2900 3500 
L 3475 3500 
L 3475 0 
L 2900 0 
L 2900 538 
Q 2691 219 2414 64 
Q 2138 -91 1772 -91 
Q 1169 -91 856 284 
Q 544 659 544 1381 
z
M 1991 3584 
L 1991 3584 
z
" transform="scale(0.015625)"/>
       <path id="DejaVuSans-73" d="M 2834 3397 
L 2834 2853 
Q 2591 2978 2328 3040 
Q 2066 3103 1784 3103 
Q 1356 3103 1142 2972 
Q 928 2841 928 2578 
Q 928 2378 1081 2264 
Q 1234 2150 1697 2047 
L 1894 2003 
Q 2506 1872 2764 1633 
Q 3022 1394 3022 966 
Q 3022 478 2636 193 
Q 2250 -91 1575 -91 
Q 1294 -91 989 -36 
Q 684 19 347 128 
L 347 722 
Q 666 556 975 473 
Q 1284 391 1588 391 
Q 1994 391 2212 530 
Q 2431 669 2431 922 
Q 2431 1156 2273 1281 
Q 2116 1406 1581 1522 
L 1381 1569 
Q 847 1681 609 1914 
Q 372 2147 372 2553 
Q 372 3047 722 3315 
Q 1072 3584 1716 3584 
Q 2034 3584 2315 3537 
Q 2597 3491 2834 3397 
z
" transform="scale(0.015625)"/>
       <path id="DejaVuSans-53" d="M 3425 4513 
L 3425 3897 
Q 3066 4069 2747 4153 
Q 2428 4238 2131 4238 
Q 1616 4238 1336 4038 
Q 1056 3838 1056 3469 
Q 1056 3159 1242 3001 
Q 1428 2844 1947 2747 
L 2328 2669 
Q 3034 2534 3370 2195 
Q 3706 1856 3706 1288 
Q 3706 609 3251 259 
Q 2797 -91 1919 -91 
Q 1588 -91 1214 -16 
Q 841 59 441 206 
L 441 856 
Q 825 641 1194 531 
Q 1563 422 1919 422 
Q 2459 422 2753 634 
Q 3047 847 3047 1241 
Q 3047 1584 2836 1778 
Q 2625 1972 2144 2069 
L 1759 2144 
Q 1053 2284 737 2584 
Q 422 2884 422 3419 
Q 422 4038 858 4394 
Q 1294 4750 2059 4750 
Q 2388 4750 2728 4690 
Q 3069 4631 3425 4513 
z
" transform="scale(0.015625)"/>
       <path id="DejaVuSans-70" d="M 1159 525 
L 1159 -1331 
L 581 -1331 
L 581 3500 
L 1159 3500 
L 1159 2969 
Q 1341 3281 1617 3432 
Q 1894 3584 2278 3584 
Q 2916 3584 3314 3078 
Q 3713 2572 3713 1747 
Q 3713 922 3314 415 
Q 2916 -91 2278 -91 
Q 1894 -91 1617 61 
Q 1341 213 1159 525 
z
M 3116 1747 
Q 3116 2381 2855 2742 
Q 2594 3103 2138 3103 
Q 1681 3103 1420 2742 
Q 1159 2381 1159 1747 
Q 1159 1113 1420 752 
Q 1681 391 2138 391 
Q 2594 391 2855 752 
Q 3116 1113 3116 1747 
z
" transform="scale(0.015625)"/>
       <path id="DejaVuSans-63" d="M 3122 3366 
L 3122 2828 
Q 2878 2963 2633 3030 
Q 2388 3097 2138 3097 
Q 1578 3097 1268 2742 
Q 959 2388 959 1747 
Q 959 1106 1268 751 
Q 1578 397 2138 397 
Q 2388 397 2633 464 
Q 2878 531 3122 666 
L 3122 134 
Q 2881 22 2623 -34 
Q 2366 -91 2075 -91 
Q 1284 -91 818 406 
Q 353 903 353 1747 
Q 353 2603 823 3093 
Q 1294 3584 2113 3584 
Q 2378 3584 2631 3529 
Q 2884 3475 3122 3366 
z
" transform="scale(0.015625)"/>
       <path id="DejaVuSans-46" d="M 628 4666 
L 3309 4666 
L 3309 4134 
L 1259 4134 
L 1259 2759 
L 3109 2759 
L 3109 2228 
L 1259 2228 
L 1259 0 
L 628 0 
L 628 4666 
z
" transform="scale(0.015625)"/>
      </defs>
      <use xlink:href="#DejaVuSans-41"/>
      <use xlink:href="#DejaVuSans-76" x="62.533203"/>
      <use xlink:href="#DejaVuSans-65" x="121.712891"/>
      <use xlink:href="#DejaVuSans-72" x="183.236328"/>
      <use xlink:href="#DejaVuSans-61" x="224.349609"/>
      <use xlink:href="#DejaVuSans-67" x="285.628906"/>
      <use xlink:href="#DejaVuSans-65" x="349.105469"/>
      <use xlink:href="#DejaVuSans-20" x="410.628906"/>
      <use xlink:href="#DejaVuSans-41" x="442.416016"/>
      <use xlink:href="#DejaVuSans-64" x="509.074219"/>
      <use xlink:href="#DejaVuSans-6a" x="572.550781"/>
      <use xlink:href="#DejaVuSans-75" x="600.333984"/>
      <use xlink:href="#DejaVuSans-73" x="663.712891"/>
      <use xlink:href="#DejaVuSans-74" x="715.8125"/>
      <use xlink:href="#DejaVuSans-65" x="755.021484"/>
      <use xlink:href="#DejaVuSans-64" x="816.544922"/>
      <use xlink:href="#DejaVuSans-20" x="880.021484"/>
      <use xlink:href="#DejaVuSans-53" x="911.808594"/>
      <use xlink:href="#DejaVuSans-70" x="975.285156"/>
      <use xlink:href="#DejaVuSans-65" x="1038.761719"/>
      <use xlink:href="#DejaVuSans-63" x="1100.285156"/>
      <use xlink:href="#DejaVuSans-69" x="1155.265625"/>
      <use xlink:href="#DejaVuSans-65" x="1183.048828"/>
      <use xlink:href="#DejaVuSans-73" x="1244.572266"/>
      <use xlink:href="#DejaVuSans-20" x="1296.671875"/>
      <use xlink:href="#DejaVuSans-46" x="1328.458984"/>
      <use xlink:href="#DejaVuSans-69" x="1378.728516"/>
      <use xlink:href="#DejaVuSans-74" x="1406.511719"/>
      <use xlink:href="#DejaVuSans-6e" x="1445.720703"/>
      <use xlink:href="#DejaVuSans-65" x="1509.099609"/>
      <use xlink:href="#DejaVuSans-73" x="1570.623047"/>
      <use xlink:href="#DejaVuSans-73" x="1622.722656"/>
     </g>
    </g>
   </g>
   <g id="line2d_27">
    <path d="M 73.981651 98.0736 
L 77.257982 132.288 
L 80.534312 132.7104 
L 83.810642 114.1248 
L 87.086972 106.0992 
L 90.363303 64.704 
L 93.639633 218.0352 
L 96.915963 195.2256 
L 100.192294 186.7776 
L 103.468624 145.5936 
L 106.744954 219.4432 
L 110.021284 165.9392 
L 113.297615 121.4464 
L 116.573945 151.296 
L 119.850275 142.2848 
L 123.126606 131.8656 
L 126.402936 132.1472 
L 129.679266 122.0096 
L 132.955596 64.4224 
L 136.231927 108.6336 
L 139.508257 146.368 
L 142.784587 118.3488 
L 146.060917 161.152 
L 149.337248 141.44 
L 152.613578 142.5664 
L 155.889908 91.7376 
L 159.166239 150.3104 
L 162.442569 171.2896 
L 165.718899 139.1872 
L 168.995229 143.6928 
L 172.27156 101.5936 
L 175.54789 178.1888 
L 178.82422 168.0864 
L 182.10055 148.3392 
L 185.376881 76.0032 
L 188.653211 52.2432 
L 191.929541 109.3728 
L 195.205872 75.0528 
L 198.482202 135.7728 
L 201.758532 85.4016 
L 205.034862 133.89312 
L 208.311193 117.84192 
L 211.587523 144.778971 
L 214.863853 133.736229 
L 218.140183 166.442057 
L 221.416514 128.003657 
L 224.692844 101.271771 
L 227.969174 116.6592 
L 231.245505 124.2624 
L 234.521835 109.14048 
L 237.798165 139.4688 
L 241.074495 140.3136 
L 244.350826 122.48832 
L 247.627156 141.66528 
L 250.903486 149.52192 
L 254.179817 147.74784 
L 257.456147 144.432 
L 260.732477 122.8896 
L 264.008807 154.8864 
L 267.285138 116.2368 
L 270.561468 136.3008 
L 273.837798 123.312 
L 277.114128 141.3696 
L 280.390459 183.0816 
L 283.666789 125.5296 
L 286.943119 155.3088 
L 290.21945 178.4352 
L 293.49578 187.728 
L 296.77211 146.7552 
L 300.04844 133.872 
L 303.324771 123.6288 
L 306.601101 201.1392 
L 309.877431 212.20608 
L 313.153761 124.43136 
L 316.430092 154.6752 
L 319.706422 143.43936 
L 322.982752 133.38624 
L 326.259083 183.5392 
L 329.535413 186.144 
L 332.811743 126.5152 
L 336.088073 133.0624 
L 339.364404 145.8752 
L 342.640734 139.1872 
L 345.917064 121.22112 
L 349.193394 128.73984 
L 352.469725 134.2944 
L 355.746055 170.55744 
L 359.022385 128.4864 
L 362.298716 129.7536 
L 365.575046 156.5056 
L 368.851376 136.59648 
L 372.127706 140.22912 
L 375.404037 114.37824 
L 378.680367 115.98336 
L 381.956697 123.75552 
L 385.233028 167.3472 
L 388.509358 125.6704 
L 391.785688 129.6832 
L 395.062018 143.904 
L 398.338349 98.5664 
L 401.614679 108.5632 
" clip-path="url(#p9b5a0e0f3c)" style="fill: none; stroke-dasharray: 7.4,3.2; stroke-dashoffset: 0; stroke: #1f77b4; stroke-width: 2"/>
    <defs>
     <path id="mde93d65970" d="M 0 3 
C 0.795609 3 1.55874 2.683901 2.12132 2.12132 
C 2.683901 1.55874 3 0.795609 3 0 
C 3 -0.795609 2.683901 -1.55874 2.12132 -2.12132 
C 1.55874 -2.683901 0.795609 -3 0 -3 
C -0.795609 -3 -1.55874 -2.683901 -2.12132 -2.12132 
C -2.683901 -1.55874 -3 -0.795609 -3 0 
C -3 0.795609 -2.683901 1.55874 -2.12132 2.12132 
C -1.55874 2.683901 -0.795609 3 0 3 
z
" style="stroke: #1f77b4"/>
    </defs>
    <g clip-path="url(#p9b5a0e0f3c)">
     <use xlink:href="#mde93d65970" x="73.981651" y="98.0736" style="fill: #1f77b4; stroke: #1f77b4"/>
     <use xlink:href="#mde93d65970" x="77.257982" y="132.288" style="fill: #1f77b4; stroke: #1f77b4"/>
     <use xlink:href="#mde93d65970" x="80.534312" y="132.7104" style="fill: #1f77b4; stroke: #1f77b4"/>
     <use xlink:href="#mde93d65970" x="83.810642" y="114.1248" style="fill: #1f77b4; stroke: #1f77b4"/>
     <use xlink:href="#mde93d65970" x="87.086972" y="106.0992" style="fill: #1f77b4; stroke: #1f77b4"/>
     <use xlink:href="#mde93d65970" x="90.363303" y="64.704" style="fill: #1f77b4; stroke: #1f77b4"/>
     <use xlink:href="#mde93d65970" x="93.639633" y="218.0352" style="fill: #1f77b4; stroke: #1f77b4"/>
     <use xlink:href="#mde93d65970" x="96.915963" y="195.2256" style="fill: #1f77b4; stroke: #1f77b4"/>
     <use xlink:href="#mde93d65970" x="100.192294" y="186.7776" style="fill: #1f77b4; stroke: #1f77b4"/>
     <use xlink:href="#mde93d65970" x="103.468624" y="145.5936" style="fill: #1f77b4; stroke: #1f77b4"/>
     <use xlink:href="#mde93d65970" x="106.744954" y="219.4432" style="fill: #1f77b4; stroke: #1f77b4"/>
     <use xlink:href="#mde93d65970" x="110.021284" y="165.9392" style="fill: #1f77b4; stroke: #1f77b4"/>
     <use xlink:href="#mde93d65970" x="113.297615" y="121.4464" style="fill: #1f77b4; stroke: #1f77b4"/>
     <use xlink:href="#mde93d65970" x="116.573945" y="151.296" style="fill: #1f77b4; stroke: #1f77b4"/>
     <use xlink:href="#mde93d65970" x="119.850275" y="142.2848" style="fill: #1f77b4; stroke: #1f77b4"/>
     <use xlink:href="#mde93d65970" x="123.126606" y="131.8656" style="fill: #1f77b4; stroke: #1f77b4"/>
     <use xlink:href="#mde93d65970" x="126.402936" y="132.1472" style="fill: #1f77b4; stroke: #1f77b4"/>
     <use xlink:href="#mde93d65970" x="129.679266" y="122.0096" style="fill: #1f77b4; stroke: #1f77b4"/>
     <use xlink:href="#mde93d65970" x="132.955596" y="64.4224" style="fill: #1f77b4; stroke: #1f77b4"/>
     <use xlink:href="#mde93d65970" x="136.231927" y="108.6336" style="fill: #1f77b4; stroke: #1f77b4"/>
     <use xlink:href="#mde93d65970" x="139.508257" y="146.368" style="fill: #1f77b4; stroke: #1f77b4"/>
     <use xlink:href="#mde93d65970" x="142.784587" y="118.3488" style="fill: #1f77b4; stroke: #1f77b4"/>
     <use xlink:href="#mde93d65970" x="146.060917" y="161.152" style="fill: #1f77b4; stroke: #1f77b4"/>
     <use xlink:href="#mde93d65970" x="149.337248" y="141.44" style="fill: #1f77b4; stroke: #1f77b4"/>
     <use xlink:href="#mde93d65970" x="152.613578" y="142.5664" style="fill: #1f77b4; stroke: #1f77b4"/>
     <use xlink:href="#mde93d65970" x="155.889908" y="91.7376" style="fill: #1f77b4; stroke: #1f77b4"/>
     <use xlink:href="#mde93d65970" x="159.166239" y="150.3104" style="fill: #1f77b4; stroke: #1f77b4"/>
     <use xlink:href="#mde93d65970" x="162.442569" y="171.2896" style="fill: #1f77b4; stroke: #1f77b4"/>
     <use xlink:href="#mde93d65970" x="165.718899" y="139.1872" style="fill: #1f77b4; stroke: #1f77b4"/>
     <use xlink:href="#mde93d65970" x="168.995229" y="143.6928" style="fill: #1f77b4; stroke: #1f77b4"/>
     <use xlink:href="#mde93d65970" x="172.27156" y="101.5936" style="fill: #1f77b4; stroke: #1f77b4"/>
     <use xlink:href="#mde93d65970" x="175.54789" y="178.1888" style="fill: #1f77b4; stroke: #1f77b4"/>
     <use xlink:href="#mde93d65970" x="178.82422" y="168.0864" style="fill: #1f77b4; stroke: #1f77b4"/>
     <use xlink:href="#mde93d65970" x="182.10055" y="148.3392" style="fill: #1f77b4; stroke: #1f77b4"/>
     <use xlink:href="#mde93d65970" x="185.376881" y="76.0032" style="fill: #1f77b4; stroke: #1f77b4"/>
     <use xlink:href="#mde93d65970" x="188.653211" y="52.2432" style="fill: #1f77b4; stroke: #1f77b4"/>
     <use xlink:href="#mde93d65970" x="191.929541" y="109.3728" style="fill: #1f77b4; stroke: #1f77b4"/>
     <use xlink:href="#mde93d65970" x="195.205872" y="75.0528" style="fill: #1f77b4; stroke: #1f77b4"/>
     <use xlink:href="#mde93d65970" x="198.482202" y="135.7728" style="fill: #1f77b4; stroke: #1f77b4"/>
     <use xlink:href="#mde93d65970" x="201.758532" y="85.4016" style="fill: #1f77b4; stroke: #1f77b4"/>
     <use xlink:href="#mde93d65970" x="205.034862" y="133.89312" style="fill: #1f77b4; stroke: #1f77b4"/>
     <use xlink:href="#mde93d65970" x="208.311193" y="117.84192" style="fill: #1f77b4; stroke: #1f77b4"/>
     <use xlink:href="#mde93d65970" x="211.587523" y="144.778971" style="fill: #1f77b4; stroke: #1f77b4"/>
     <use xlink:href="#mde93d65970" x="214.863853" y="133.736229" style="fill: #1f77b4; stroke: #1f77b4"/>
     <use xlink:href="#mde93d65970" x="218.140183" y="166.442057" style="fill: #1f77b4; stroke: #1f77b4"/>
     <use xlink:href="#mde93d65970" x="221.416514" y="128.003657" style="fill: #1f77b4; stroke: #1f77b4"/>
     <use xlink:href="#mde93d65970" x="224.692844" y="101.271771" style="fill: #1f77b4; stroke: #1f77b4"/>
     <use xlink:href="#mde93d65970" x="227.969174" y="116.6592" style="fill: #1f77b4; stroke: #1f77b4"/>
     <use xlink:href="#mde93d65970" x="231.245505" y="124.2624" style="fill: #1f77b4; stroke: #1f77b4"/>
     <use xlink:href="#mde93d65970" x="234.521835" y="109.14048" style="fill: #1f77b4; stroke: #1f77b4"/>
     <use xlink:href="#mde93d65970" x="237.798165" y="139.4688" style="fill: #1f77b4; stroke: #1f77b4"/>
     <use xlink:href="#mde93d65970" x="241.074495" y="140.3136" style="fill: #1f77b4; stroke: #1f77b4"/>
     <use xlink:href="#mde93d65970" x="244.350826" y="122.48832" style="fill: #1f77b4; stroke: #1f77b4"/>
     <use xlink:href="#mde93d65970" x="247.627156" y="141.66528" style="fill: #1f77b4; stroke: #1f77b4"/>
     <use xlink:href="#mde93d65970" x="250.903486" y="149.52192" style="fill: #1f77b4; stroke: #1f77b4"/>
     <use xlink:href="#mde93d65970" x="254.179817" y="147.74784" style="fill: #1f77b4; stroke: #1f77b4"/>
     <use xlink:href="#mde93d65970" x="257.456147" y="144.432" style="fill: #1f77b4; stroke: #1f77b4"/>
     <use xlink:href="#mde93d65970" x="260.732477" y="122.8896" style="fill: #1f77b4; stroke: #1f77b4"/>
     <use xlink:href="#mde93d65970" x="264.008807" y="154.8864" style="fill: #1f77b4; stroke: #1f77b4"/>
     <use xlink:href="#mde93d65970" x="267.285138" y="116.2368" style="fill: #1f77b4; stroke: #1f77b4"/>
     <use xlink:href="#mde93d65970" x="270.561468" y="136.3008" style="fill: #1f77b4; stroke: #1f77b4"/>
     <use xlink:href="#mde93d65970" x="273.837798" y="123.312" style="fill: #1f77b4; stroke: #1f77b4"/>
     <use xlink:href="#mde93d65970" x="277.114128" y="141.3696" style="fill: #1f77b4; stroke: #1f77b4"/>
     <use xlink:href="#mde93d65970" x="280.390459" y="183.0816" style="fill: #1f77b4; stroke: #1f77b4"/>
     <use xlink:href="#mde93d65970" x="283.666789" y="125.5296" style="fill: #1f77b4; stroke: #1f77b4"/>
     <use xlink:href="#mde93d65970" x="286.943119" y="155.3088" style="fill: #1f77b4; stroke: #1f77b4"/>
     <use xlink:href="#mde93d65970" x="290.21945" y="178.4352" style="fill: #1f77b4; stroke: #1f77b4"/>
     <use xlink:href="#mde93d65970" x="293.49578" y="187.728" style="fill: #1f77b4; stroke: #1f77b4"/>
     <use xlink:href="#mde93d65970" x="296.77211" y="146.7552" style="fill: #1f77b4; stroke: #1f77b4"/>
     <use xlink:href="#mde93d65970" x="300.04844" y="133.872" style="fill: #1f77b4; stroke: #1f77b4"/>
     <use xlink:href="#mde93d65970" x="303.324771" y="123.6288" style="fill: #1f77b4; stroke: #1f77b4"/>
     <use xlink:href="#mde93d65970" x="306.601101" y="201.1392" style="fill: #1f77b4; stroke: #1f77b4"/>
     <use xlink:href="#mde93d65970" x="309.877431" y="212.20608" style="fill: #1f77b4; stroke: #1f77b4"/>
     <use xlink:href="#mde93d65970" x="313.153761" y="124.43136" style="fill: #1f77b4; stroke: #1f77b4"/>
     <use xlink:href="#mde93d65970" x="316.430092" y="154.6752" style="fill: #1f77b4; stroke: #1f77b4"/>
     <use xlink:href="#mde93d65970" x="319.706422" y="143.43936" style="fill: #1f77b4; stroke: #1f77b4"/>
     <use xlink:href="#mde93d65970" x="322.982752" y="133.38624" style="fill: #1f77b4; stroke: #1f77b4"/>
     <use xlink:href="#mde93d65970" x="326.259083" y="183.5392" style="fill: #1f77b4; stroke: #1f77b4"/>
     <use xlink:href="#mde93d65970" x="329.535413" y="186.144" style="fill: #1f77b4; stroke: #1f77b4"/>
     <use xlink:href="#mde93d65970" x="332.811743" y="126.5152" style="fill: #1f77b4; stroke: #1f77b4"/>
     <use xlink:href="#mde93d65970" x="336.088073" y="133.0624" style="fill: #1f77b4; stroke: #1f77b4"/>
     <use xlink:href="#mde93d65970" x="339.364404" y="145.8752" style="fill: #1f77b4; stroke: #1f77b4"/>
     <use xlink:href="#mde93d65970" x="342.640734" y="139.1872" style="fill: #1f77b4; stroke: #1f77b4"/>
     <use xlink:href="#mde93d65970" x="345.917064" y="121.22112" style="fill: #1f77b4; stroke: #1f77b4"/>
     <use xlink:href="#mde93d65970" x="349.193394" y="128.73984" style="fill: #1f77b4; stroke: #1f77b4"/>
     <use xlink:href="#mde93d65970" x="352.469725" y="134.2944" style="fill: #1f77b4; stroke: #1f77b4"/>
     <use xlink:href="#mde93d65970" x="355.746055" y="170.55744" style="fill: #1f77b4; stroke: #1f77b4"/>
     <use xlink:href="#mde93d65970" x="359.022385" y="128.4864" style="fill: #1f77b4; stroke: #1f77b4"/>
     <use xlink:href="#mde93d65970" x="362.298716" y="129.7536" style="fill: #1f77b4; stroke: #1f77b4"/>
     <use xlink:href="#mde93d65970" x="365.575046" y="156.5056" style="fill: #1f77b4; stroke: #1f77b4"/>
     <use xlink:href="#mde93d65970" x="368.851376" y="136.59648" style="fill: #1f77b4; stroke: #1f77b4"/>
     <use xlink:href="#mde93d65970" x="372.127706" y="140.22912" style="fill: #1f77b4; stroke: #1f77b4"/>
     <use xlink:href="#mde93d65970" x="375.404037" y="114.37824" style="fill: #1f77b4; stroke: #1f77b4"/>
     <use xlink:href="#mde93d65970" x="378.680367" y="115.98336" style="fill: #1f77b4; stroke: #1f77b4"/>
     <use xlink:href="#mde93d65970" x="381.956697" y="123.75552" style="fill: #1f77b4; stroke: #1f77b4"/>
     <use xlink:href="#mde93d65970" x="385.233028" y="167.3472" style="fill: #1f77b4; stroke: #1f77b4"/>
     <use xlink:href="#mde93d65970" x="388.509358" y="125.6704" style="fill: #1f77b4; stroke: #1f77b4"/>
     <use xlink:href="#mde93d65970" x="391.785688" y="129.6832" style="fill: #1f77b4; stroke: #1f77b4"/>
     <use xlink:href="#mde93d65970" x="395.062018" y="143.904" style="fill: #1f77b4; stroke: #1f77b4"/>
     <use xlink:href="#mde93d65970" x="398.338349" y="98.5664" style="fill: #1f77b4; stroke: #1f77b4"/>
     <use xlink:href="#mde93d65970" x="401.614679" y="108.5632" style="fill: #1f77b4; stroke: #1f77b4"/>
    </g>
   </g>
   <g id="patch_3">
    <path d="M 57.6 307.584 
L 57.6 41.472 
" style="fill: none; stroke: #000000; stroke-width: 0.8; stroke-linejoin: miter; stroke-linecap: square"/>
   </g>
   <g id="patch_4">
    <path d="M 414.72 307.584 
L 414.72 41.472 
" style="fill: none; stroke: #000000; stroke-width: 0.8; stroke-linejoin: miter; stroke-linecap: square"/>
   </g>
   <g id="patch_5">
    <path d="M 57.6 307.584 
L 414.72 307.584 
" style="fill: none; stroke: #000000; stroke-width: 0.8; stroke-linejoin: miter; stroke-linecap: square"/>
   </g>
   <g id="patch_6">
    <path d="M 57.6 41.472 
L 414.72 41.472 
" style="fill: none; stroke: #000000; stroke-width: 0.8; stroke-linejoin: miter; stroke-linecap: square"/>
   </g>
   <g id="legend_1">
    <g id="patch_7">
     <path d="M 208.235625 302.584 
L 407.72 302.584 
Q 409.72 302.584 409.72 300.584 
L 409.72 286.905875 
Q 409.72 284.905875 407.72 284.905875 
L 208.235625 284.905875 
Q 206.235625 284.905875 206.235625 286.905875 
L 206.235625 300.584 
Q 206.235625 302.584 208.235625 302.584 
z
" style="fill: #ffffff; opacity: 0.8; stroke: #cccccc; stroke-linejoin: miter"/>
    </g>
    <g id="line2d_28">
     <path d="M 210.235625 293.004312 
L 220.235625 293.004312 
L 230.235625 293.004312 
" style="fill: none; stroke-dasharray: 7.4,3.2; stroke-dashoffset: 0; stroke: #1f77b4; stroke-width: 2"/>
     <g>
      <use xlink:href="#mde93d65970" x="220.235625" y="293.004312" style="fill: #1f77b4; stroke: #1f77b4"/>
     </g>
    </g>
    <g id="text_16">
     <!-- Average Adjusted Species Fitness -->
     <g transform="translate(238.235625 296.504312) scale(0.1 -0.1)">
      <use xlink:href="#DejaVuSans-41"/>
      <use xlink:href="#DejaVuSans-76" x="62.533203"/>
      <use xlink:href="#DejaVuSans-65" x="121.712891"/>
      <use xlink:href="#DejaVuSans-72" x="183.236328"/>
      <use xlink:href="#DejaVuSans-61" x="224.349609"/>
      <use xlink:href="#DejaVuSans-67" x="285.628906"/>
      <use xlink:href="#DejaVuSans-65" x="349.105469"/>
      <use xlink:href="#DejaVuSans-20" x="410.628906"/>
      <use xlink:href="#DejaVuSans-41" x="442.416016"/>
      <use xlink:href="#DejaVuSans-64" x="509.074219"/>
      <use xlink:href="#DejaVuSans-6a" x="572.550781"/>
      <use xlink:href="#DejaVuSans-75" x="600.333984"/>
      <use xlink:href="#DejaVuSans-73" x="663.712891"/>
      <use xlink:href="#DejaVuSans-74" x="715.8125"/>
      <use xlink:href="#DejaVuSans-65" x="755.021484"/>
      <use xlink:href="#DejaVuSans-64" x="816.544922"/>
      <use xlink:href="#DejaVuSans-20" x="880.021484"/>
      <use xlink:href="#DejaVuSans-53" x="911.808594"/>
      <use xlink:href="#DejaVuSans-70" x="975.285156"/>
      <use xlink:href="#DejaVuSans-65" x="1038.761719"/>
      <use xlink:href="#DejaVuSans-63" x="1100.285156"/>
      <use xlink:href="#DejaVuSans-69" x="1155.265625"/>
      <use xlink:href="#DejaVuSans-65" x="1183.048828"/>
      <use xlink:href="#DejaVuSans-73" x="1244.572266"/>
      <use xlink:href="#DejaVuSans-20" x="1296.671875"/>
      <use xlink:href="#DejaVuSans-46" x="1328.458984"/>
      <use xlink:href="#DejaVuSans-69" x="1378.728516"/>
      <use xlink:href="#DejaVuSans-74" x="1406.511719"/>
      <use xlink:href="#DejaVuSans-6e" x="1445.720703"/>
      <use xlink:href="#DejaVuSans-65" x="1509.099609"/>
      <use xlink:href="#DejaVuSans-73" x="1570.623047"/>
      <use xlink:href="#DejaVuSans-73" x="1622.722656"/>
     </g>
    </g>
   </g>
  </g>
 </g>
 <defs>
  <clipPath id="p9b5a0e0f3c">
   <rect x="57.6" y="41.472" width="357.12" height="266.112"/>
  </clipPath>
 </defs>
</svg>
